<mxfile host="app.diagrams.net" modified="2022-11-14T06:00:03.137Z" agent="5.0 (Windows NT 10.0; Win64; x64) AppleWebKit/537.36 (KHTML, like Gecko) Chrome/104.0.0.0 Safari/537.36" etag="HcieYzSVnVanBaV_au7a" version="20.3.0" type="github" pages="9">
  <diagram id="U-1-LC51geAz5eZWcot6" name="Page-1">
    <mxGraphModel dx="1038" dy="547" grid="1" gridSize="10" guides="1" tooltips="1" connect="1" arrows="1" fold="1" page="1" pageScale="1" pageWidth="1300" pageHeight="800" math="1" shadow="0">
      <root>
        <mxCell id="0" />
        <mxCell id="1" parent="0" />
        <mxCell id="bVSrS0WVGXemz3ixCtJD-1" value="&lt;font style=&quot;font-size: 14px&quot;&gt;&lt;b&gt;$$W_g:1\times1$$&lt;/b&gt;&lt;/font&gt;" style="rounded=0;whiteSpace=wrap;html=1;fillColor=#ffe6cc;strokeColor=#d79b00;" parent="1" vertex="1">
          <mxGeometry x="180" y="240" width="90" height="40" as="geometry" />
        </mxCell>
        <mxCell id="bVSrS0WVGXemz3ixCtJD-2" value="&lt;font style=&quot;font-size: 14px&quot;&gt;&lt;b&gt;$$W_h:1\times1$$&lt;/b&gt;&lt;/font&gt;" style="rounded=0;whiteSpace=wrap;html=1;fillColor=#ffe6cc;strokeColor=#d79b00;" parent="1" vertex="1">
          <mxGeometry x="180" y="340" width="90" height="40" as="geometry" />
        </mxCell>
        <mxCell id="bVSrS0WVGXemz3ixCtJD-3" value="&lt;font style=&quot;font-size: 14px&quot;&gt;&lt;b&gt;ReLU&lt;/b&gt;&lt;/font&gt;" style="rounded=0;whiteSpace=wrap;html=1;fillColor=#dae8fc;strokeColor=#6c8ebf;" parent="1" vertex="1">
          <mxGeometry x="391" y="290" width="69" height="40" as="geometry" />
        </mxCell>
        <mxCell id="bVSrS0WVGXemz3ixCtJD-4" value="&lt;span&gt;&lt;font style=&quot;font-size: 14px&quot;&gt;&lt;b&gt;$$W_{\varphi}:1\times1$$&lt;/b&gt;&lt;/font&gt;&lt;/span&gt;" style="rounded=0;whiteSpace=wrap;html=1;fillColor=#ffe6cc;strokeColor=#d79b00;" parent="1" vertex="1">
          <mxGeometry x="510" y="290" width="90" height="40" as="geometry" />
        </mxCell>
        <mxCell id="bVSrS0WVGXemz3ixCtJD-5" value="&lt;font style=&quot;font-size: 14px&quot;&gt;&lt;b&gt;Sigmoid&lt;/b&gt;&lt;/font&gt;" style="rounded=0;whiteSpace=wrap;html=1;fillColor=#dae8fc;strokeColor=#6c8ebf;" parent="1" vertex="1">
          <mxGeometry x="650" y="290" width="70" height="40" as="geometry" />
        </mxCell>
        <mxCell id="bVSrS0WVGXemz3ixCtJD-6" value="&lt;font style=&quot;font-size: 14px&quot;&gt;&lt;b&gt;ReSampler&lt;/b&gt;&lt;/font&gt;" style="rounded=0;whiteSpace=wrap;html=1;fillColor=none;" parent="1" vertex="1">
          <mxGeometry x="770" y="290" width="90" height="40" as="geometry" />
        </mxCell>
        <mxCell id="bVSrS0WVGXemz3ixCtJD-7" value="" style="endArrow=classic;html=1;rounded=0;" parent="1" edge="1">
          <mxGeometry width="50" height="50" relative="1" as="geometry">
            <mxPoint x="120" y="259.5" as="sourcePoint" />
            <mxPoint x="180" y="259.5" as="targetPoint" />
          </mxGeometry>
        </mxCell>
        <mxCell id="bVSrS0WVGXemz3ixCtJD-8" value="" style="endArrow=classic;html=1;rounded=0;" parent="1" edge="1">
          <mxGeometry width="50" height="50" relative="1" as="geometry">
            <mxPoint x="120" y="359.5" as="sourcePoint" />
            <mxPoint x="180" y="359.5" as="targetPoint" />
          </mxGeometry>
        </mxCell>
        <mxCell id="bVSrS0WVGXemz3ixCtJD-9" value="" style="edgeStyle=segmentEdgeStyle;endArrow=classic;html=1;rounded=0;entryX=0.5;entryY=0;entryDx=0;entryDy=0;exitX=1;exitY=0.5;exitDx=0;exitDy=0;exitPerimeter=0;" parent="1" source="bVSrS0WVGXemz3ixCtJD-1" target="bVSrS0WVGXemz3ixCtJD-11" edge="1">
          <mxGeometry width="50" height="50" relative="1" as="geometry">
            <mxPoint x="270" y="250" as="sourcePoint" />
            <mxPoint x="320" y="290" as="targetPoint" />
          </mxGeometry>
        </mxCell>
        <mxCell id="bVSrS0WVGXemz3ixCtJD-10" value="" style="edgeStyle=segmentEdgeStyle;endArrow=classic;html=1;rounded=0;entryX=0.5;entryY=1;entryDx=0;entryDy=0;exitX=1;exitY=0.5;exitDx=0;exitDy=0;" parent="1" source="bVSrS0WVGXemz3ixCtJD-2" target="bVSrS0WVGXemz3ixCtJD-11" edge="1">
          <mxGeometry width="50" height="50" relative="1" as="geometry">
            <mxPoint x="270" y="370" as="sourcePoint" />
            <mxPoint x="320" y="320" as="targetPoint" />
          </mxGeometry>
        </mxCell>
        <mxCell id="bVSrS0WVGXemz3ixCtJD-11" value="" style="shape=orEllipse;perimeter=ellipsePerimeter;whiteSpace=wrap;html=1;backgroundOutline=1;fillColor=none;" parent="1" vertex="1">
          <mxGeometry x="310" y="295" width="30" height="30" as="geometry" />
        </mxCell>
        <mxCell id="bVSrS0WVGXemz3ixCtJD-12" value="" style="endArrow=classic;html=1;rounded=0;" parent="1" edge="1">
          <mxGeometry width="50" height="50" relative="1" as="geometry">
            <mxPoint x="340" y="309.5" as="sourcePoint" />
            <mxPoint x="390" y="310" as="targetPoint" />
          </mxGeometry>
        </mxCell>
        <mxCell id="bVSrS0WVGXemz3ixCtJD-13" value="" style="endArrow=classic;html=1;rounded=0;" parent="1" edge="1">
          <mxGeometry width="50" height="50" relative="1" as="geometry">
            <mxPoint x="460" y="309.5" as="sourcePoint" />
            <mxPoint x="510" y="309.5" as="targetPoint" />
          </mxGeometry>
        </mxCell>
        <mxCell id="bVSrS0WVGXemz3ixCtJD-14" value="" style="endArrow=classic;html=1;rounded=0;" parent="1" edge="1">
          <mxGeometry width="50" height="50" relative="1" as="geometry">
            <mxPoint x="600" y="309.5" as="sourcePoint" />
            <mxPoint x="650" y="309.5" as="targetPoint" />
          </mxGeometry>
        </mxCell>
        <mxCell id="bVSrS0WVGXemz3ixCtJD-15" value="" style="endArrow=classic;html=1;rounded=0;" parent="1" edge="1">
          <mxGeometry width="50" height="50" relative="1" as="geometry">
            <mxPoint x="720" y="309.5" as="sourcePoint" />
            <mxPoint x="770" y="309.5" as="targetPoint" />
          </mxGeometry>
        </mxCell>
        <mxCell id="bVSrS0WVGXemz3ixCtJD-16" value="" style="endArrow=classic;html=1;rounded=0;" parent="1" edge="1">
          <mxGeometry width="50" height="50" relative="1" as="geometry">
            <mxPoint x="860" y="309.5" as="sourcePoint" />
            <mxPoint x="910" y="309.5" as="targetPoint" />
          </mxGeometry>
        </mxCell>
        <mxCell id="bVSrS0WVGXemz3ixCtJD-17" value="" style="shape=sumEllipse;perimeter=ellipsePerimeter;whiteSpace=wrap;html=1;backgroundOutline=1;fillColor=none;" parent="1" vertex="1">
          <mxGeometry x="910" y="295" width="30" height="30" as="geometry" />
        </mxCell>
        <mxCell id="bVSrS0WVGXemz3ixCtJD-18" value="" style="edgeStyle=elbowEdgeStyle;elbow=vertical;endArrow=classic;html=1;rounded=0;entryX=0.5;entryY=1;entryDx=0;entryDy=0;exitX=0.5;exitY=1;exitDx=0;exitDy=0;" parent="1" source="bVSrS0WVGXemz3ixCtJD-20" target="bVSrS0WVGXemz3ixCtJD-17" edge="1">
          <mxGeometry width="50" height="50" relative="1" as="geometry">
            <mxPoint x="120" y="360" as="sourcePoint" />
            <mxPoint x="990" y="370" as="targetPoint" />
            <Array as="points">
              <mxPoint x="540" y="410" />
            </Array>
          </mxGeometry>
        </mxCell>
        <mxCell id="bVSrS0WVGXemz3ixCtJD-19" value="" style="endArrow=classic;html=1;rounded=0;" parent="1" edge="1">
          <mxGeometry width="50" height="50" relative="1" as="geometry">
            <mxPoint x="940" y="309.5" as="sourcePoint" />
            <mxPoint x="1000" y="310" as="targetPoint" />
          </mxGeometry>
        </mxCell>
        <mxCell id="bVSrS0WVGXemz3ixCtJD-20" value="&lt;b&gt;$$h$$&lt;/b&gt;" style="text;html=1;strokeColor=none;fillColor=none;align=center;verticalAlign=middle;whiteSpace=wrap;rounded=0;fontSize=14;" parent="1" vertex="1">
          <mxGeometry x="120" y="330" width="60" height="30" as="geometry" />
        </mxCell>
        <mxCell id="bVSrS0WVGXemz3ixCtJD-21" value="&lt;b&gt;$$g$$&lt;/b&gt;" style="text;html=1;strokeColor=none;fillColor=none;align=center;verticalAlign=middle;whiteSpace=wrap;rounded=0;fontSize=14;" parent="1" vertex="1">
          <mxGeometry x="120" y="230" width="60" height="30" as="geometry" />
        </mxCell>
        <mxCell id="bVSrS0WVGXemz3ixCtJD-22" value="&lt;b&gt;$$h_{output}$$&lt;/b&gt;" style="text;html=1;strokeColor=none;fillColor=none;align=center;verticalAlign=middle;whiteSpace=wrap;rounded=0;fontSize=14;" parent="1" vertex="1">
          <mxGeometry x="940" y="280" width="60" height="30" as="geometry" />
        </mxCell>
        <mxCell id="bVSrS0WVGXemz3ixCtJD-23" value="&lt;font style=&quot;font-size: 12px&quot;&gt;$$C_g\times H_g\times&amp;nbsp;W_g$$&lt;/font&gt;" style="text;html=1;strokeColor=none;fillColor=none;align=center;verticalAlign=middle;whiteSpace=wrap;rounded=0;fontSize=14;" parent="1" vertex="1">
          <mxGeometry x="140" y="280" width="60" height="30" as="geometry" />
        </mxCell>
        <mxCell id="bVSrS0WVGXemz3ixCtJD-24" value="&lt;font style=&quot;font-size: 12px&quot;&gt;$$C_h\times H_h\times&amp;nbsp;W_h$$&lt;/font&gt;" style="text;html=1;strokeColor=none;fillColor=none;align=center;verticalAlign=middle;whiteSpace=wrap;rounded=0;fontSize=14;" parent="1" vertex="1">
          <mxGeometry x="140" y="410" width="60" height="30" as="geometry" />
        </mxCell>
        <mxCell id="bVSrS0WVGXemz3ixCtJD-25" value="&lt;font style=&quot;font-size: 12px&quot;&gt;$$C_g\times H_g\times&amp;nbsp;W_g$$&lt;/font&gt;" style="text;html=1;strokeColor=none;fillColor=none;align=center;verticalAlign=middle;whiteSpace=wrap;rounded=0;fontSize=14;" parent="1" vertex="1">
          <mxGeometry x="360" y="340" width="60" height="30" as="geometry" />
        </mxCell>
      </root>
    </mxGraphModel>
  </diagram>
  <diagram id="Nc9Qa_n99Eu8xKGmDgr0" name="Page-2">
    <mxGraphModel dx="1038" dy="547" grid="1" gridSize="10" guides="1" tooltips="1" connect="1" arrows="1" fold="1" page="1" pageScale="1" pageWidth="600" pageHeight="300" math="1" shadow="0">
      <root>
        <mxCell id="zBhqGLYfunxpVQjSTWj5-0" />
        <mxCell id="zBhqGLYfunxpVQjSTWj5-1" parent="zBhqGLYfunxpVQjSTWj5-0" />
        <mxCell id="zBhqGLYfunxpVQjSTWj5-2" value="&lt;font style=&quot;font-size: 16px&quot;&gt;图像输入&lt;/font&gt;" style="rounded=0;whiteSpace=wrap;html=1;fontSize=12;fillColor=none;" parent="zBhqGLYfunxpVQjSTWj5-1" vertex="1">
          <mxGeometry x="18" y="60" width="105" height="60" as="geometry" />
        </mxCell>
        <mxCell id="zBhqGLYfunxpVQjSTWj5-3" value="" style="endArrow=classic;html=1;rounded=0;fontSize=14;" parent="zBhqGLYfunxpVQjSTWj5-1" edge="1">
          <mxGeometry width="50" height="50" relative="1" as="geometry">
            <mxPoint x="77.5" y="120" as="sourcePoint" />
            <mxPoint x="78" y="170" as="targetPoint" />
          </mxGeometry>
        </mxCell>
        <mxCell id="zBhqGLYfunxpVQjSTWj5-4" value="&lt;font style=&quot;font-size: 16px&quot;&gt;裁剪&lt;/font&gt;" style="rounded=0;whiteSpace=wrap;html=1;fontSize=14;fillColor=none;" parent="zBhqGLYfunxpVQjSTWj5-1" vertex="1">
          <mxGeometry x="18" y="170" width="105" height="60" as="geometry" />
        </mxCell>
        <mxCell id="zBhqGLYfunxpVQjSTWj5-5" value="&lt;font style=&quot;font-size: 16px&quot;&gt;缩放&lt;/font&gt;" style="rounded=0;whiteSpace=wrap;html=1;fontSize=14;fillColor=none;" parent="zBhqGLYfunxpVQjSTWj5-1" vertex="1">
          <mxGeometry x="173" y="170" width="100" height="60" as="geometry" />
        </mxCell>
        <mxCell id="zBhqGLYfunxpVQjSTWj5-6" value="&lt;font style=&quot;font-size: 16px&quot;&gt;对比度增强&lt;/font&gt;" style="rounded=0;whiteSpace=wrap;html=1;fontSize=14;fillColor=none;" parent="zBhqGLYfunxpVQjSTWj5-1" vertex="1">
          <mxGeometry x="323" y="170" width="105" height="60" as="geometry" />
        </mxCell>
        <mxCell id="zBhqGLYfunxpVQjSTWj5-7" value="&lt;font style=&quot;font-size: 16px&quot;&gt;去噪&lt;/font&gt;" style="rounded=0;whiteSpace=wrap;html=1;fontSize=14;fillColor=none;" parent="zBhqGLYfunxpVQjSTWj5-1" vertex="1">
          <mxGeometry x="478" y="170" width="105" height="60" as="geometry" />
        </mxCell>
        <mxCell id="zBhqGLYfunxpVQjSTWj5-8" value="&lt;font style=&quot;font-size: 16px&quot;&gt;图像输出&lt;/font&gt;" style="rounded=0;whiteSpace=wrap;html=1;fontSize=14;fillColor=none;" parent="zBhqGLYfunxpVQjSTWj5-1" vertex="1">
          <mxGeometry x="478" y="60" width="105" height="60" as="geometry" />
        </mxCell>
        <mxCell id="zBhqGLYfunxpVQjSTWj5-9" value="" style="endArrow=classic;html=1;rounded=0;fontSize=14;" parent="zBhqGLYfunxpVQjSTWj5-1" edge="1">
          <mxGeometry width="50" height="50" relative="1" as="geometry">
            <mxPoint x="123" y="199.5" as="sourcePoint" />
            <mxPoint x="173" y="199.5" as="targetPoint" />
          </mxGeometry>
        </mxCell>
        <mxCell id="zBhqGLYfunxpVQjSTWj5-11" value="" style="endArrow=classic;html=1;rounded=0;fontSize=14;" parent="zBhqGLYfunxpVQjSTWj5-1" edge="1">
          <mxGeometry width="50" height="50" relative="1" as="geometry">
            <mxPoint x="273" y="199.5" as="sourcePoint" />
            <mxPoint x="323" y="199.5" as="targetPoint" />
          </mxGeometry>
        </mxCell>
        <mxCell id="zBhqGLYfunxpVQjSTWj5-12" value="" style="endArrow=classic;html=1;rounded=0;fontSize=14;" parent="zBhqGLYfunxpVQjSTWj5-1" edge="1">
          <mxGeometry width="50" height="50" relative="1" as="geometry">
            <mxPoint x="428" y="199.5" as="sourcePoint" />
            <mxPoint x="478" y="199.5" as="targetPoint" />
          </mxGeometry>
        </mxCell>
        <mxCell id="zBhqGLYfunxpVQjSTWj5-14" value="" style="endArrow=classic;html=1;rounded=0;fontSize=14;" parent="zBhqGLYfunxpVQjSTWj5-1" edge="1">
          <mxGeometry width="50" height="50" relative="1" as="geometry">
            <mxPoint x="533" y="170" as="sourcePoint" />
            <mxPoint x="533" y="120" as="targetPoint" />
          </mxGeometry>
        </mxCell>
      </root>
    </mxGraphModel>
  </diagram>
  <diagram id="p6ojb72nLOM0QrohG0X1" name="Page-3">
    <mxGraphModel dx="1038" dy="547" grid="1" gridSize="10" guides="1" tooltips="1" connect="1" arrows="1" fold="1" page="1" pageScale="1" pageWidth="500" pageHeight="300" math="1" shadow="0">
      <root>
        <mxCell id="Rz2_5e9CTavwLLmA7fF9-0" />
        <mxCell id="Rz2_5e9CTavwLLmA7fF9-1" parent="Rz2_5e9CTavwLLmA7fF9-0" />
        <mxCell id="Rz2_5e9CTavwLLmA7fF9-8" value="1x1 Conv" style="rounded=0;whiteSpace=wrap;html=1;fontSize=16;fillColor=none;" parent="Rz2_5e9CTavwLLmA7fF9-1" vertex="1">
          <mxGeometry x="100" y="30" width="100" height="40" as="geometry" />
        </mxCell>
        <mxCell id="Rz2_5e9CTavwLLmA7fF9-9" value="3x3 Conv&lt;br&gt;rate=6" style="rounded=0;whiteSpace=wrap;html=1;fontSize=16;fillColor=none;" parent="Rz2_5e9CTavwLLmA7fF9-1" vertex="1">
          <mxGeometry x="100" y="80" width="100" height="40" as="geometry" />
        </mxCell>
        <mxCell id="Rz2_5e9CTavwLLmA7fF9-10" value="3x3 Conv&lt;br&gt;rate=12" style="rounded=0;whiteSpace=wrap;html=1;fontSize=16;fillColor=none;" parent="Rz2_5e9CTavwLLmA7fF9-1" vertex="1">
          <mxGeometry x="100" y="130" width="100" height="40" as="geometry" />
        </mxCell>
        <mxCell id="Rz2_5e9CTavwLLmA7fF9-11" value="3x3 Conv&lt;br&gt;rate=18" style="rounded=0;whiteSpace=wrap;html=1;fontSize=16;fillColor=none;" parent="Rz2_5e9CTavwLLmA7fF9-1" vertex="1">
          <mxGeometry x="100" y="180" width="100" height="40" as="geometry" />
        </mxCell>
        <mxCell id="Rz2_5e9CTavwLLmA7fF9-12" value="Image Pooling" style="rounded=0;whiteSpace=wrap;html=1;fontSize=16;fillColor=none;" parent="Rz2_5e9CTavwLLmA7fF9-1" vertex="1">
          <mxGeometry x="100" y="230" width="100" height="40" as="geometry" />
        </mxCell>
        <mxCell id="Rz2_5e9CTavwLLmA7fF9-13" value="" style="endArrow=classic;html=1;rounded=0;fontSize=16;" parent="Rz2_5e9CTavwLLmA7fF9-1" edge="1">
          <mxGeometry width="50" height="50" relative="1" as="geometry">
            <mxPoint x="200" y="49.5" as="sourcePoint" />
            <mxPoint x="280" y="150" as="targetPoint" />
          </mxGeometry>
        </mxCell>
        <mxCell id="Rz2_5e9CTavwLLmA7fF9-14" value="" style="edgeStyle=elbowEdgeStyle;elbow=horizontal;endArrow=classic;html=1;rounded=0;fontSize=16;entryX=0;entryY=0.5;entryDx=0;entryDy=0;" parent="Rz2_5e9CTavwLLmA7fF9-1" target="Rz2_5e9CTavwLLmA7fF9-8" edge="1">
          <mxGeometry width="50" height="50" relative="1" as="geometry">
            <mxPoint x="30" y="150" as="sourcePoint" />
            <mxPoint x="100" y="60" as="targetPoint" />
            <Array as="points">
              <mxPoint x="60" y="160" />
              <mxPoint x="60" y="120" />
            </Array>
          </mxGeometry>
        </mxCell>
        <mxCell id="Rz2_5e9CTavwLLmA7fF9-15" value="" style="endArrow=classic;html=1;rounded=0;fontSize=16;" parent="Rz2_5e9CTavwLLmA7fF9-1" edge="1">
          <mxGeometry width="50" height="50" relative="1" as="geometry">
            <mxPoint x="60" y="100" as="sourcePoint" />
            <mxPoint x="100" y="99.5" as="targetPoint" />
          </mxGeometry>
        </mxCell>
        <mxCell id="Rz2_5e9CTavwLLmA7fF9-16" value="" style="endArrow=classic;html=1;rounded=0;fontSize=16;" parent="Rz2_5e9CTavwLLmA7fF9-1" edge="1">
          <mxGeometry width="50" height="50" relative="1" as="geometry">
            <mxPoint x="60" y="149.5" as="sourcePoint" />
            <mxPoint x="100" y="149" as="targetPoint" />
          </mxGeometry>
        </mxCell>
        <mxCell id="Rz2_5e9CTavwLLmA7fF9-17" value="" style="endArrow=classic;html=1;rounded=0;fontSize=16;" parent="Rz2_5e9CTavwLLmA7fF9-1" edge="1">
          <mxGeometry width="50" height="50" relative="1" as="geometry">
            <mxPoint x="60" y="200" as="sourcePoint" />
            <mxPoint x="100" y="199.5" as="targetPoint" />
          </mxGeometry>
        </mxCell>
        <mxCell id="Rz2_5e9CTavwLLmA7fF9-19" value="" style="endArrow=classic;html=1;rounded=0;fontSize=16;" parent="Rz2_5e9CTavwLLmA7fF9-1" edge="1">
          <mxGeometry width="50" height="50" relative="1" as="geometry">
            <mxPoint x="60" y="250" as="sourcePoint" />
            <mxPoint x="100" y="249.5" as="targetPoint" />
          </mxGeometry>
        </mxCell>
        <mxCell id="Rz2_5e9CTavwLLmA7fF9-20" value="" style="endArrow=none;html=1;rounded=0;fontSize=16;" parent="Rz2_5e9CTavwLLmA7fF9-1" edge="1">
          <mxGeometry width="50" height="50" relative="1" as="geometry">
            <mxPoint x="60" y="250" as="sourcePoint" />
            <mxPoint x="60" y="150" as="targetPoint" />
          </mxGeometry>
        </mxCell>
        <mxCell id="Rz2_5e9CTavwLLmA7fF9-21" value="" style="endArrow=classic;html=1;rounded=0;fontSize=16;" parent="Rz2_5e9CTavwLLmA7fF9-1" edge="1">
          <mxGeometry width="50" height="50" relative="1" as="geometry">
            <mxPoint x="190" y="99.5" as="sourcePoint" />
            <mxPoint x="280" y="150" as="targetPoint" />
          </mxGeometry>
        </mxCell>
        <mxCell id="Rz2_5e9CTavwLLmA7fF9-22" value="" style="endArrow=classic;html=1;rounded=0;fontSize=16;" parent="Rz2_5e9CTavwLLmA7fF9-1" edge="1">
          <mxGeometry width="50" height="50" relative="1" as="geometry">
            <mxPoint x="200" y="150" as="sourcePoint" />
            <mxPoint x="280" y="150" as="targetPoint" />
          </mxGeometry>
        </mxCell>
        <mxCell id="Rz2_5e9CTavwLLmA7fF9-23" value="" style="endArrow=classic;html=1;rounded=0;fontSize=16;" parent="Rz2_5e9CTavwLLmA7fF9-1" edge="1">
          <mxGeometry width="50" height="50" relative="1" as="geometry">
            <mxPoint x="200" y="200" as="sourcePoint" />
            <mxPoint x="280" y="150" as="targetPoint" />
          </mxGeometry>
        </mxCell>
        <mxCell id="Rz2_5e9CTavwLLmA7fF9-24" value="" style="endArrow=classic;html=1;rounded=0;fontSize=16;" parent="Rz2_5e9CTavwLLmA7fF9-1" edge="1">
          <mxGeometry width="50" height="50" relative="1" as="geometry">
            <mxPoint x="200" y="250" as="sourcePoint" />
            <mxPoint x="280" y="150" as="targetPoint" />
          </mxGeometry>
        </mxCell>
        <mxCell id="Rz2_5e9CTavwLLmA7fF9-25" value="Concat" style="rounded=0;whiteSpace=wrap;html=1;fontSize=16;fillColor=none;" parent="Rz2_5e9CTavwLLmA7fF9-1" vertex="1">
          <mxGeometry x="280" y="130" width="100" height="40" as="geometry" />
        </mxCell>
      </root>
    </mxGraphModel>
  </diagram>
  <diagram id="-wpm-G0wT5wCIVW7yzWm" name="Page-4">
    <mxGraphModel dx="1038" dy="547" grid="1" gridSize="10" guides="1" tooltips="1" connect="1" arrows="1" fold="1" page="1" pageScale="1" pageWidth="1000" pageHeight="300" math="1" shadow="0">
      <root>
        <mxCell id="CUhlXA_ETqyBvUV3o_hi-0" />
        <mxCell id="CUhlXA_ETqyBvUV3o_hi-1" parent="CUhlXA_ETqyBvUV3o_hi-0" />
        <mxCell id="CUhlXA_ETqyBvUV3o_hi-4" value="" style="endArrow=classic;html=1;rounded=0;fontSize=16;strokeWidth=2;" parent="CUhlXA_ETqyBvUV3o_hi-1" edge="1">
          <mxGeometry width="50" height="50" relative="1" as="geometry">
            <mxPoint x="250" y="140" as="sourcePoint" />
            <mxPoint x="470" y="140" as="targetPoint" />
          </mxGeometry>
        </mxCell>
        <mxCell id="CUhlXA_ETqyBvUV3o_hi-6" value="" style="html=1;whiteSpace=wrap;shape=isoCube2;backgroundOutline=1;isoAngle=15;fontSize=16;fillColor=#fff2cc;strokeColor=#d6b656;" parent="CUhlXA_ETqyBvUV3o_hi-1" vertex="1">
          <mxGeometry x="180" y="90" width="63" height="70" as="geometry" />
        </mxCell>
        <mxCell id="CUhlXA_ETqyBvUV3o_hi-8" value="" style="shape=sumEllipse;perimeter=ellipsePerimeter;whiteSpace=wrap;html=1;backgroundOutline=1;fontSize=16;fillColor=none;strokeWidth=2;" parent="CUhlXA_ETqyBvUV3o_hi-1" vertex="1">
          <mxGeometry x="480" y="123" width="30" height="30" as="geometry" />
        </mxCell>
        <mxCell id="CUhlXA_ETqyBvUV3o_hi-10" value="" style="endArrow=classic;html=1;rounded=0;fontSize=16;strokeWidth=2;" parent="CUhlXA_ETqyBvUV3o_hi-1" edge="1">
          <mxGeometry width="50" height="50" relative="1" as="geometry">
            <mxPoint x="250" y="130" as="sourcePoint" />
            <mxPoint x="290" y="100" as="targetPoint" />
          </mxGeometry>
        </mxCell>
        <mxCell id="CUhlXA_ETqyBvUV3o_hi-11" value="&lt;font style=&quot;font-size: 14px&quot;&gt;Channel&lt;br&gt;Attention&lt;br&gt;Module&lt;/font&gt;" style="rounded=1;whiteSpace=wrap;html=1;fontSize=16;fillColor=none;strokeWidth=2;strokeColor=#00CC00;" parent="CUhlXA_ETqyBvUV3o_hi-1" vertex="1">
          <mxGeometry x="300" y="40" width="120" height="60" as="geometry" />
        </mxCell>
        <mxCell id="CUhlXA_ETqyBvUV3o_hi-12" value="" style="endArrow=classic;html=1;rounded=0;fontSize=14;strokeWidth=2;" parent="CUhlXA_ETqyBvUV3o_hi-1" edge="1">
          <mxGeometry width="50" height="50" relative="1" as="geometry">
            <mxPoint x="430" y="100" as="sourcePoint" />
            <mxPoint x="470" y="130" as="targetPoint" />
          </mxGeometry>
        </mxCell>
        <mxCell id="CUhlXA_ETqyBvUV3o_hi-13" value="" style="endArrow=classic;html=1;rounded=0;fontSize=16;strokeWidth=2;" parent="CUhlXA_ETqyBvUV3o_hi-1" edge="1">
          <mxGeometry width="50" height="50" relative="1" as="geometry">
            <mxPoint x="520" y="140" as="sourcePoint" />
            <mxPoint x="740" y="140" as="targetPoint" />
          </mxGeometry>
        </mxCell>
        <mxCell id="CUhlXA_ETqyBvUV3o_hi-14" value="" style="shape=sumEllipse;perimeter=ellipsePerimeter;whiteSpace=wrap;html=1;backgroundOutline=1;fontSize=16;fillColor=none;strokeWidth=2;" parent="CUhlXA_ETqyBvUV3o_hi-1" vertex="1">
          <mxGeometry x="750" y="123" width="30" height="30" as="geometry" />
        </mxCell>
        <mxCell id="CUhlXA_ETqyBvUV3o_hi-15" value="" style="endArrow=classic;html=1;rounded=0;fontSize=16;strokeWidth=2;" parent="CUhlXA_ETqyBvUV3o_hi-1" edge="1">
          <mxGeometry width="50" height="50" relative="1" as="geometry">
            <mxPoint x="520" y="130" as="sourcePoint" />
            <mxPoint x="560" y="100" as="targetPoint" />
          </mxGeometry>
        </mxCell>
        <mxCell id="CUhlXA_ETqyBvUV3o_hi-16" value="&lt;font style=&quot;font-size: 14px&quot;&gt;Spatial&lt;br&gt;Attention&lt;br&gt;Module&lt;/font&gt;" style="rounded=1;whiteSpace=wrap;html=1;fontSize=16;fillColor=none;strokeWidth=2;strokeColor=#66B2FF;" parent="CUhlXA_ETqyBvUV3o_hi-1" vertex="1">
          <mxGeometry x="570" y="40" width="120" height="60" as="geometry" />
        </mxCell>
        <mxCell id="CUhlXA_ETqyBvUV3o_hi-17" value="" style="endArrow=classic;html=1;rounded=0;fontSize=14;strokeWidth=2;" parent="CUhlXA_ETqyBvUV3o_hi-1" edge="1">
          <mxGeometry width="50" height="50" relative="1" as="geometry">
            <mxPoint x="700" y="100" as="sourcePoint" />
            <mxPoint x="740" y="130" as="targetPoint" />
          </mxGeometry>
        </mxCell>
        <mxCell id="CUhlXA_ETqyBvUV3o_hi-18" value="" style="endArrow=classic;html=1;rounded=0;fontSize=14;strokeWidth=2;" parent="CUhlXA_ETqyBvUV3o_hi-1" edge="1">
          <mxGeometry width="50" height="50" relative="1" as="geometry">
            <mxPoint x="877" y="140" as="sourcePoint" />
            <mxPoint x="917" y="140" as="targetPoint" />
          </mxGeometry>
        </mxCell>
        <mxCell id="CUhlXA_ETqyBvUV3o_hi-19" value="" style="html=1;whiteSpace=wrap;shape=isoCube2;backgroundOutline=1;isoAngle=15;fontSize=16;fillColor=#dae8fc;strokeColor=#6c8ebf;" parent="CUhlXA_ETqyBvUV3o_hi-1" vertex="1">
          <mxGeometry x="927" y="90" width="63" height="70" as="geometry" />
        </mxCell>
        <mxCell id="CUhlXA_ETqyBvUV3o_hi-20" value="" style="html=1;whiteSpace=wrap;shape=isoCube2;backgroundOutline=1;isoAngle=15;fontSize=16;fillColor=#E6E6E6;strokeColor=#808080;" parent="CUhlXA_ETqyBvUV3o_hi-1" vertex="1">
          <mxGeometry x="60" y="90" width="63" height="70" as="geometry" />
        </mxCell>
        <mxCell id="CUhlXA_ETqyBvUV3o_hi-21" value="" style="endArrow=classic;html=1;rounded=0;fontSize=14;strokeWidth=2;" parent="CUhlXA_ETqyBvUV3o_hi-1" edge="1">
          <mxGeometry width="50" height="50" relative="1" as="geometry">
            <mxPoint x="133" y="137.5" as="sourcePoint" />
            <mxPoint x="173" y="137.5" as="targetPoint" />
          </mxGeometry>
        </mxCell>
        <mxCell id="CUhlXA_ETqyBvUV3o_hi-22" value="" style="endArrow=classic;html=1;rounded=0;fontSize=14;strokeWidth=2;" parent="CUhlXA_ETqyBvUV3o_hi-1" edge="1">
          <mxGeometry width="50" height="50" relative="1" as="geometry">
            <mxPoint x="790" y="140" as="sourcePoint" />
            <mxPoint x="830" y="140" as="targetPoint" />
          </mxGeometry>
        </mxCell>
        <mxCell id="CUhlXA_ETqyBvUV3o_hi-24" value="" style="shape=orEllipse;perimeter=ellipsePerimeter;whiteSpace=wrap;html=1;backgroundOutline=1;fontSize=14;strokeColor=#000000;strokeWidth=2;fillColor=none;" parent="CUhlXA_ETqyBvUV3o_hi-1" vertex="1">
          <mxGeometry x="840" y="123" width="30" height="30" as="geometry" />
        </mxCell>
        <mxCell id="CUhlXA_ETqyBvUV3o_hi-25" value="" style="edgeStyle=elbowEdgeStyle;elbow=vertical;endArrow=classic;html=1;rounded=0;fontSize=14;strokeWidth=2;" parent="CUhlXA_ETqyBvUV3o_hi-1" edge="1">
          <mxGeometry width="50" height="50" relative="1" as="geometry">
            <mxPoint x="105" y="160" as="sourcePoint" />
            <mxPoint x="855" y="160" as="targetPoint" />
            <Array as="points">
              <mxPoint x="125" y="190" />
            </Array>
          </mxGeometry>
        </mxCell>
        <mxCell id="CUhlXA_ETqyBvUV3o_hi-26" value="" style="endArrow=classic;html=1;rounded=0;fontSize=14;strokeWidth=2;" parent="CUhlXA_ETqyBvUV3o_hi-1" edge="1">
          <mxGeometry width="50" height="50" relative="1" as="geometry">
            <mxPoint x="10" y="137.5" as="sourcePoint" />
            <mxPoint x="50" y="137.5" as="targetPoint" />
          </mxGeometry>
        </mxCell>
        <mxCell id="CUhlXA_ETqyBvUV3o_hi-27" value="Conv" style="text;html=1;strokeColor=none;fillColor=none;align=center;verticalAlign=middle;whiteSpace=wrap;rounded=0;fontSize=14;" parent="CUhlXA_ETqyBvUV3o_hi-1" vertex="1">
          <mxGeometry x="120" y="110" width="60" height="30" as="geometry" />
        </mxCell>
      </root>
    </mxGraphModel>
  </diagram>
  <diagram id="9aWd9Oez46tdkjh1gl7N" name="Page-5">
    <mxGraphModel dx="1038" dy="547" grid="1" gridSize="10" guides="1" tooltips="1" connect="1" arrows="1" fold="1" page="1" pageScale="1" pageWidth="1000" pageHeight="300" math="1" shadow="0">
      <root>
        <mxCell id="rkJX1Xl2POLWdnWASivk-0" />
        <mxCell id="rkJX1Xl2POLWdnWASivk-1" parent="rkJX1Xl2POLWdnWASivk-0" />
        <mxCell id="rkJX1Xl2POLWdnWASivk-4" value="&lt;font style=&quot;font-size: 18px&quot;&gt;image&lt;/font&gt;" style="rounded=0;whiteSpace=wrap;html=1;fontFamily=Times New Roman;fontSize=14;strokeWidth=2;dashed=1;fillColor=none;" parent="rkJX1Xl2POLWdnWASivk-1" vertex="1">
          <mxGeometry x="60" y="50" width="80" height="40" as="geometry" />
        </mxCell>
        <mxCell id="rkJX1Xl2POLWdnWASivk-5" value="" style="endArrow=classic;html=1;rounded=0;fontFamily=Times New Roman;fontSize=18;strokeWidth=2;" parent="rkJX1Xl2POLWdnWASivk-1" edge="1">
          <mxGeometry width="50" height="50" relative="1" as="geometry">
            <mxPoint x="140" y="69.5" as="sourcePoint" />
            <mxPoint x="200" y="69.5" as="targetPoint" />
          </mxGeometry>
        </mxCell>
        <mxCell id="rkJX1Xl2POLWdnWASivk-6" value="ECA-Net" style="rounded=1;whiteSpace=wrap;html=1;fontFamily=Times New Roman;fontSize=18;strokeColor=#82b366;strokeWidth=2;fillColor=#d5e8d4;" parent="rkJX1Xl2POLWdnWASivk-1" vertex="1">
          <mxGeometry x="200" y="40" width="120" height="60" as="geometry" />
        </mxCell>
        <mxCell id="rkJX1Xl2POLWdnWASivk-7" value="" style="endArrow=classic;html=1;rounded=0;fontFamily=Times New Roman;fontSize=18;strokeWidth=2;" parent="rkJX1Xl2POLWdnWASivk-1" edge="1">
          <mxGeometry width="50" height="50" relative="1" as="geometry">
            <mxPoint x="320" y="70" as="sourcePoint" />
            <mxPoint x="380" y="70" as="targetPoint" />
          </mxGeometry>
        </mxCell>
        <mxCell id="rkJX1Xl2POLWdnWASivk-9" value="fusion" style="whiteSpace=wrap;html=1;aspect=fixed;fontFamily=Times New Roman;fontSize=18;strokeColor=#666666;strokeWidth=2;fillColor=#f5f5f5;fontColor=#333333;" parent="rkJX1Xl2POLWdnWASivk-1" vertex="1">
          <mxGeometry x="380" y="30" width="80" height="80" as="geometry" />
        </mxCell>
        <mxCell id="rkJX1Xl2POLWdnWASivk-10" value="&lt;p class=&quot;MsoNormal&quot;&gt;&lt;span style=&quot;font-size: 12.0000pt&quot;&gt;HOG、LBP、形状特征&lt;/span&gt;&lt;/p&gt;" style="rounded=0;whiteSpace=wrap;html=1;dashed=1;fontFamily=Times New Roman;fontSize=18;strokeColor=#000000;strokeWidth=2;fillColor=none;" parent="rkJX1Xl2POLWdnWASivk-1" vertex="1">
          <mxGeometry x="200" y="160" width="120" height="60" as="geometry" />
        </mxCell>
        <mxCell id="rkJX1Xl2POLWdnWASivk-13" value="" style="edgeStyle=segmentEdgeStyle;endArrow=classic;html=1;rounded=0;fontFamily=Times New Roman;fontSize=18;strokeWidth=2;exitX=1;exitY=0.5;exitDx=0;exitDy=0;" parent="rkJX1Xl2POLWdnWASivk-1" source="rkJX1Xl2POLWdnWASivk-10" edge="1">
          <mxGeometry width="50" height="50" relative="1" as="geometry">
            <mxPoint x="370" y="160" as="sourcePoint" />
            <mxPoint x="420" y="110" as="targetPoint" />
          </mxGeometry>
        </mxCell>
        <mxCell id="rkJX1Xl2POLWdnWASivk-14" value="" style="endArrow=classic;html=1;rounded=0;fontFamily=Times New Roman;fontSize=18;strokeWidth=2;" parent="rkJX1Xl2POLWdnWASivk-1" edge="1">
          <mxGeometry width="50" height="50" relative="1" as="geometry">
            <mxPoint x="460" y="70" as="sourcePoint" />
            <mxPoint x="520" y="70" as="targetPoint" />
          </mxGeometry>
        </mxCell>
        <mxCell id="rkJX1Xl2POLWdnWASivk-15" value="Transformer" style="rounded=1;whiteSpace=wrap;html=1;fontFamily=Times New Roman;fontSize=18;strokeColor=#9673a6;strokeWidth=2;fillColor=#e1d5e7;" parent="rkJX1Xl2POLWdnWASivk-1" vertex="1">
          <mxGeometry x="520" y="40" width="120" height="60" as="geometry" />
        </mxCell>
        <mxCell id="rkJX1Xl2POLWdnWASivk-16" value="" style="endArrow=classic;html=1;rounded=0;fontFamily=Times New Roman;fontSize=18;strokeWidth=2;" parent="rkJX1Xl2POLWdnWASivk-1" edge="1">
          <mxGeometry width="50" height="50" relative="1" as="geometry">
            <mxPoint x="640" y="69.5" as="sourcePoint" />
            <mxPoint x="700" y="69.5" as="targetPoint" />
          </mxGeometry>
        </mxCell>
        <mxCell id="rkJX1Xl2POLWdnWASivk-17" value="softmax" style="ellipse;whiteSpace=wrap;html=1;fontFamily=Times New Roman;fontSize=18;strokeColor=#000000;strokeWidth=2;fillColor=none;" parent="rkJX1Xl2POLWdnWASivk-1" vertex="1">
          <mxGeometry x="700" y="45" width="90" height="50" as="geometry" />
        </mxCell>
        <mxCell id="rkJX1Xl2POLWdnWASivk-18" value="" style="endArrow=classic;html=1;rounded=0;fontFamily=Times New Roman;fontSize=18;strokeWidth=2;" parent="rkJX1Xl2POLWdnWASivk-1" edge="1">
          <mxGeometry width="50" height="50" relative="1" as="geometry">
            <mxPoint x="790" y="70" as="sourcePoint" />
            <mxPoint x="840" y="70" as="targetPoint" />
          </mxGeometry>
        </mxCell>
        <mxCell id="rkJX1Xl2POLWdnWASivk-20" value="benign&lt;br&gt;malignant&lt;br&gt;normal" style="rounded=0;whiteSpace=wrap;html=1;fontFamily=Times New Roman;fontSize=18;strokeColor=#23445d;strokeWidth=2;fillColor=#bac8d3;dashed=1;dashPattern=1 1;" parent="rkJX1Xl2POLWdnWASivk-1" vertex="1">
          <mxGeometry x="840" y="30" width="90" height="80" as="geometry" />
        </mxCell>
      </root>
    </mxGraphModel>
  </diagram>
  <diagram id="3isrPS_drMGu0wxqrQHy" name="Page-6">
    <mxGraphModel dx="1038" dy="1047" grid="1" gridSize="10" guides="1" tooltips="1" connect="1" arrows="1" fold="1" page="1" pageScale="1" pageWidth="1000" pageHeight="500" math="1" shadow="0">
      <root>
        <mxCell id="hm_xNNIRigRLoXKuzicx-0" />
        <mxCell id="hm_xNNIRigRLoXKuzicx-1" parent="hm_xNNIRigRLoXKuzicx-0" />
        <mxCell id="hm_xNNIRigRLoXKuzicx-18" value="" style="ellipse;whiteSpace=wrap;html=1;fontFamily=Times New Roman;fontSize=18;strokeColor=#999999;strokeWidth=2;fillColor=none;rotation=10;dashed=1;" parent="hm_xNNIRigRLoXKuzicx-1" vertex="1">
          <mxGeometry x="529.14" y="19.92" width="318.51" height="120.07" as="geometry" />
        </mxCell>
        <mxCell id="hm_xNNIRigRLoXKuzicx-2" value="数据采集" style="rounded=0;whiteSpace=wrap;html=1;fontFamily=Times New Roman;fontSize=18;strokeColor=none;strokeWidth=2;fillColor=#66B2FF;fontColor=#000000;" parent="hm_xNNIRigRLoXKuzicx-1" vertex="1">
          <mxGeometry x="112" y="90" width="120" height="60" as="geometry" />
        </mxCell>
        <mxCell id="hm_xNNIRigRLoXKuzicx-3" value="预处理" style="rounded=0;whiteSpace=wrap;html=1;fontFamily=Times New Roman;fontSize=18;strokeColor=none;strokeWidth=2;fillColor=#66B2FF;fontColor=#000000;" parent="hm_xNNIRigRLoXKuzicx-1" vertex="1">
          <mxGeometry x="320" y="90" width="120" height="60" as="geometry" />
        </mxCell>
        <mxCell id="hm_xNNIRigRLoXKuzicx-7" value="&lt;br&gt;验证集" style="strokeWidth=2;html=1;shape=mxgraph.flowchart.database;whiteSpace=wrap;fontFamily=Times New Roman;fontSize=18;fillColor=#CC99FF;" parent="hm_xNNIRigRLoXKuzicx-1" vertex="1">
          <mxGeometry x="710" y="70" width="110" height="60" as="geometry" />
        </mxCell>
        <mxCell id="hm_xNNIRigRLoXKuzicx-8" value="&lt;br&gt;训练集" style="strokeWidth=2;html=1;shape=mxgraph.flowchart.database;whiteSpace=wrap;fontFamily=Times New Roman;fontSize=18;fillColor=#CC99FF;strokeColor=#000000;" parent="hm_xNNIRigRLoXKuzicx-1" vertex="1">
          <mxGeometry x="550" y="30" width="110" height="60" as="geometry" />
        </mxCell>
        <mxCell id="hm_xNNIRigRLoXKuzicx-9" value="&lt;br&gt;测试集" style="strokeWidth=2;html=1;shape=mxgraph.flowchart.database;whiteSpace=wrap;fontFamily=Times New Roman;fontSize=18;fillColor=#CC99FF;strokeColor=#000000;" parent="hm_xNNIRigRLoXKuzicx-1" vertex="1">
          <mxGeometry x="330" y="224" width="110" height="60" as="geometry" />
        </mxCell>
        <mxCell id="hm_xNNIRigRLoXKuzicx-10" value="model pool" style="rounded=1;whiteSpace=wrap;html=1;fontFamily=Times New Roman;fontSize=18;strokeColor=default;strokeWidth=2;fillColor=#dae8fc;gradientColor=none;" parent="hm_xNNIRigRLoXKuzicx-1" vertex="1">
          <mxGeometry x="550" y="194" width="110" height="90" as="geometry" />
        </mxCell>
        <mxCell id="hm_xNNIRigRLoXKuzicx-11" value="" style="shape=flexArrow;endArrow=classic;html=1;rounded=0;fontFamily=Times New Roman;fontSize=18;strokeWidth=2;labelBackgroundColor=none;fontColor=default;fillColor=none;" parent="hm_xNNIRigRLoXKuzicx-1" edge="1">
          <mxGeometry width="50" height="50" relative="1" as="geometry">
            <mxPoint x="235" y="120.5" as="sourcePoint" />
            <mxPoint x="315" y="121" as="targetPoint" />
          </mxGeometry>
        </mxCell>
        <mxCell id="hm_xNNIRigRLoXKuzicx-12" value="" style="shape=flexArrow;endArrow=classic;html=1;rounded=0;fontFamily=Times New Roman;fontSize=18;strokeWidth=2;" parent="hm_xNNIRigRLoXKuzicx-1" edge="1">
          <mxGeometry width="50" height="50" relative="1" as="geometry">
            <mxPoint x="450" y="120" as="sourcePoint" />
            <mxPoint x="540" y="80" as="targetPoint" />
          </mxGeometry>
        </mxCell>
        <mxCell id="hm_xNNIRigRLoXKuzicx-13" value="" style="shape=flexArrow;endArrow=classic;html=1;rounded=0;fontFamily=Times New Roman;fontSize=18;strokeWidth=2;" parent="hm_xNNIRigRLoXKuzicx-1" edge="1">
          <mxGeometry width="50" height="50" relative="1" as="geometry">
            <mxPoint x="604.5" y="96" as="sourcePoint" />
            <mxPoint x="605" y="180" as="targetPoint" />
          </mxGeometry>
        </mxCell>
        <mxCell id="hm_xNNIRigRLoXKuzicx-14" value="train" style="text;html=1;strokeColor=none;fillColor=none;align=center;verticalAlign=middle;whiteSpace=wrap;rounded=0;fontFamily=Times New Roman;fontSize=18;" parent="hm_xNNIRigRLoXKuzicx-1" vertex="1">
          <mxGeometry x="540" y="130" width="60" height="30" as="geometry" />
        </mxCell>
        <mxCell id="hm_xNNIRigRLoXKuzicx-15" value="" style="shape=flexArrow;endArrow=classic;html=1;rounded=0;fontFamily=Times New Roman;fontSize=18;strokeWidth=2;" parent="hm_xNNIRigRLoXKuzicx-1" edge="1">
          <mxGeometry width="50" height="50" relative="1" as="geometry">
            <mxPoint x="760" y="140" as="sourcePoint" />
            <mxPoint x="660" y="190" as="targetPoint" />
          </mxGeometry>
        </mxCell>
        <mxCell id="hm_xNNIRigRLoXKuzicx-16" value="optimize" style="text;html=1;strokeColor=none;fillColor=none;align=center;verticalAlign=middle;whiteSpace=wrap;rounded=0;fontFamily=Times New Roman;fontSize=18;" parent="hm_xNNIRigRLoXKuzicx-1" vertex="1">
          <mxGeometry x="700" y="170" width="60" height="30" as="geometry" />
        </mxCell>
        <mxCell id="hm_xNNIRigRLoXKuzicx-17" value="" style="shape=flexArrow;endArrow=classic;html=1;rounded=0;fontFamily=Times New Roman;fontSize=18;strokeWidth=2;" parent="hm_xNNIRigRLoXKuzicx-1" edge="1">
          <mxGeometry width="50" height="50" relative="1" as="geometry">
            <mxPoint x="379.5" y="157" as="sourcePoint" />
            <mxPoint x="379.5" y="217" as="targetPoint" />
          </mxGeometry>
        </mxCell>
        <mxCell id="hm_xNNIRigRLoXKuzicx-20" value="" style="shape=flexArrow;endArrow=classic;html=1;rounded=0;fontFamily=Times New Roman;fontSize=18;strokeWidth=2;" parent="hm_xNNIRigRLoXKuzicx-1" edge="1">
          <mxGeometry width="50" height="50" relative="1" as="geometry">
            <mxPoint x="460" y="253.5" as="sourcePoint" />
            <mxPoint x="540" y="240" as="targetPoint" />
          </mxGeometry>
        </mxCell>
        <mxCell id="hm_xNNIRigRLoXKuzicx-21" value="" style="shape=flexArrow;endArrow=classic;html=1;rounded=0;fontFamily=Times New Roman;fontSize=18;strokeWidth=2;" parent="hm_xNNIRigRLoXKuzicx-1" edge="1">
          <mxGeometry width="50" height="50" relative="1" as="geometry">
            <mxPoint x="670" y="240" as="sourcePoint" />
            <mxPoint x="750" y="240" as="targetPoint" />
          </mxGeometry>
        </mxCell>
        <mxCell id="hm_xNNIRigRLoXKuzicx-23" value="分割结果、分类结果" style="rounded=0;html=1;dashed=1;fontFamily=Times New Roman;fontSize=18;strokeColor=none;strokeWidth=2;fillColor=#FFA561;whiteSpace=wrap;" parent="hm_xNNIRigRLoXKuzicx-1" vertex="1">
          <mxGeometry x="760" y="209" width="120" height="60" as="geometry" />
        </mxCell>
      </root>
    </mxGraphModel>
  </diagram>
  <diagram id="fWY_clk_A9-eLVOfuEjm" name="第 7 页">
    <mxGraphModel dx="1221" dy="644" grid="0" gridSize="10" guides="1" tooltips="1" connect="1" arrows="1" fold="1" page="1" pageScale="1" pageWidth="583" pageHeight="827" math="0" shadow="0">
      <root>
        <mxCell id="0" />
        <mxCell id="1" parent="0" />
        <mxCell id="kdek4eqxlBiCtEGH6TSQ-1" value="Residual Block" style="rounded=0;whiteSpace=wrap;html=1;fillColor=none;" vertex="1" parent="1">
          <mxGeometry x="20" y="100" width="90" height="30" as="geometry" />
        </mxCell>
        <mxCell id="kdek4eqxlBiCtEGH6TSQ-2" value="Residual Block" style="rounded=0;whiteSpace=wrap;html=1;fillColor=none;" vertex="1" parent="1">
          <mxGeometry x="30" y="160" width="90" height="30" as="geometry" />
        </mxCell>
        <mxCell id="kdek4eqxlBiCtEGH6TSQ-3" value="Residual Block" style="rounded=0;whiteSpace=wrap;html=1;fillColor=none;" vertex="1" parent="1">
          <mxGeometry x="40" y="220" width="90" height="30" as="geometry" />
        </mxCell>
        <mxCell id="kdek4eqxlBiCtEGH6TSQ-4" value="Residual Block" style="rounded=0;whiteSpace=wrap;html=1;fillColor=none;" vertex="1" parent="1">
          <mxGeometry x="50" y="280" width="90" height="30" as="geometry" />
        </mxCell>
        <mxCell id="kdek4eqxlBiCtEGH6TSQ-5" value="Residual Block" style="rounded=0;whiteSpace=wrap;html=1;fillColor=none;" vertex="1" parent="1">
          <mxGeometry x="430" y="100" width="90" height="30" as="geometry" />
        </mxCell>
        <mxCell id="kdek4eqxlBiCtEGH6TSQ-6" value="Residual Block" style="rounded=0;whiteSpace=wrap;html=1;fillColor=none;" vertex="1" parent="1">
          <mxGeometry x="420" y="160" width="90" height="30" as="geometry" />
        </mxCell>
        <mxCell id="kdek4eqxlBiCtEGH6TSQ-7" value="Residual Block" style="rounded=0;whiteSpace=wrap;html=1;fillColor=none;" vertex="1" parent="1">
          <mxGeometry x="410" y="220" width="90" height="30" as="geometry" />
        </mxCell>
        <mxCell id="kdek4eqxlBiCtEGH6TSQ-8" value="Residual Block" style="rounded=0;whiteSpace=wrap;html=1;fillColor=none;" vertex="1" parent="1">
          <mxGeometry x="400" y="280" width="90" height="30" as="geometry" />
        </mxCell>
        <mxCell id="kdek4eqxlBiCtEGH6TSQ-10" value="ASPP" style="rounded=0;whiteSpace=wrap;html=1;fillColor=none;" vertex="1" parent="1">
          <mxGeometry x="200" y="345" width="90" height="30" as="geometry" />
        </mxCell>
        <mxCell id="kdek4eqxlBiCtEGH6TSQ-11" value="concate" style="rounded=1;whiteSpace=wrap;html=1;fillColor=none;" vertex="1" parent="1">
          <mxGeometry x="280" y="280" width="60" height="30" as="geometry" />
        </mxCell>
        <mxCell id="kdek4eqxlBiCtEGH6TSQ-13" value="concate" style="rounded=1;whiteSpace=wrap;html=1;fillColor=none;" vertex="1" parent="1">
          <mxGeometry x="292" y="220" width="60" height="30" as="geometry" />
        </mxCell>
        <mxCell id="kdek4eqxlBiCtEGH6TSQ-14" value="concate" style="rounded=1;whiteSpace=wrap;html=1;fillColor=none;" vertex="1" parent="1">
          <mxGeometry x="300" y="160" width="60" height="30" as="geometry" />
        </mxCell>
        <mxCell id="kdek4eqxlBiCtEGH6TSQ-15" value="concate" style="rounded=1;whiteSpace=wrap;html=1;fillColor=none;" vertex="1" parent="1">
          <mxGeometry x="310" y="100" width="60" height="30" as="geometry" />
        </mxCell>
        <mxCell id="kdek4eqxlBiCtEGH6TSQ-16" value="MLP" style="rounded=1;whiteSpace=wrap;html=1;fillColor=none;" vertex="1" parent="1">
          <mxGeometry x="215" y="490" width="60" height="30" as="geometry" />
        </mxCell>
        <mxCell id="kdek4eqxlBiCtEGH6TSQ-17" value="" style="endArrow=classic;html=1;rounded=0;" edge="1" parent="1">
          <mxGeometry width="50" height="50" relative="1" as="geometry">
            <mxPoint x="244.66" y="520" as="sourcePoint" />
            <mxPoint x="244.66" y="550" as="targetPoint" />
          </mxGeometry>
        </mxCell>
        <mxCell id="kdek4eqxlBiCtEGH6TSQ-18" value="benign/malignant/normal" style="text;html=1;strokeColor=none;fillColor=none;align=center;verticalAlign=middle;whiteSpace=wrap;rounded=0;" vertex="1" parent="1">
          <mxGeometry x="210" y="551" width="70" height="30" as="geometry" />
        </mxCell>
        <mxCell id="kdek4eqxlBiCtEGH6TSQ-19" value="" style="endArrow=classic;html=1;rounded=0;" edge="1" parent="1">
          <mxGeometry width="50" height="50" relative="1" as="geometry">
            <mxPoint x="64.66" y="130" as="sourcePoint" />
            <mxPoint x="64.66" y="160" as="targetPoint" />
          </mxGeometry>
        </mxCell>
        <mxCell id="kdek4eqxlBiCtEGH6TSQ-20" value="" style="endArrow=classic;html=1;rounded=0;" edge="1" parent="1">
          <mxGeometry width="50" height="50" relative="1" as="geometry">
            <mxPoint x="74.65999999999997" y="190" as="sourcePoint" />
            <mxPoint x="74.65999999999997" y="220" as="targetPoint" />
          </mxGeometry>
        </mxCell>
        <mxCell id="kdek4eqxlBiCtEGH6TSQ-21" value="" style="endArrow=classic;html=1;rounded=0;" edge="1" parent="1">
          <mxGeometry width="50" height="50" relative="1" as="geometry">
            <mxPoint x="84.65999999999997" y="250" as="sourcePoint" />
            <mxPoint x="84.65999999999997" y="280" as="targetPoint" />
          </mxGeometry>
        </mxCell>
        <mxCell id="qp5J22JxWefJAlM9Jt5t-1" value="" style="endArrow=none;html=1;rounded=0;fontSize=13;" edge="1" parent="1">
          <mxGeometry width="50" height="50" relative="1" as="geometry">
            <mxPoint x="95" y="360" as="sourcePoint" />
            <mxPoint x="94.66" y="310" as="targetPoint" />
          </mxGeometry>
        </mxCell>
        <mxCell id="qp5J22JxWefJAlM9Jt5t-2" value="" style="endArrow=classic;html=1;rounded=0;fontSize=13;" edge="1" parent="1">
          <mxGeometry width="50" height="50" relative="1" as="geometry">
            <mxPoint x="95" y="360" as="sourcePoint" />
            <mxPoint x="200" y="360" as="targetPoint" />
          </mxGeometry>
        </mxCell>
        <mxCell id="qp5J22JxWefJAlM9Jt5t-6" value="" style="endArrow=classic;html=1;rounded=0;fontSize=13;entryX=0;entryY=0.5;entryDx=0;entryDy=0;" edge="1" parent="1" target="kdek4eqxlBiCtEGH6TSQ-11">
          <mxGeometry width="50" height="50" relative="1" as="geometry">
            <mxPoint x="140" y="294.65999999999997" as="sourcePoint" />
            <mxPoint x="240" y="294.65999999999997" as="targetPoint" />
          </mxGeometry>
        </mxCell>
        <mxCell id="qp5J22JxWefJAlM9Jt5t-7" value="" style="endArrow=classic;html=1;rounded=0;fontSize=13;entryX=0;entryY=0.5;entryDx=0;entryDy=0;" edge="1" parent="1" target="kdek4eqxlBiCtEGH6TSQ-13">
          <mxGeometry width="50" height="50" relative="1" as="geometry">
            <mxPoint x="130.0000000000001" y="234.65999999999997" as="sourcePoint" />
            <mxPoint x="270.0000000000001" y="235" as="targetPoint" />
          </mxGeometry>
        </mxCell>
        <mxCell id="qp5J22JxWefJAlM9Jt5t-8" value="" style="endArrow=classic;html=1;rounded=0;fontSize=13;entryX=0;entryY=0.5;entryDx=0;entryDy=0;" edge="1" parent="1" target="kdek4eqxlBiCtEGH6TSQ-14">
          <mxGeometry width="50" height="50" relative="1" as="geometry">
            <mxPoint x="120.00000000000011" y="174.65999999999997" as="sourcePoint" />
            <mxPoint x="260.0000000000001" y="175" as="targetPoint" />
          </mxGeometry>
        </mxCell>
        <mxCell id="qp5J22JxWefJAlM9Jt5t-9" value="" style="endArrow=classic;html=1;rounded=0;fontSize=13;entryX=0;entryY=0.5;entryDx=0;entryDy=0;" edge="1" parent="1" target="kdek4eqxlBiCtEGH6TSQ-15">
          <mxGeometry width="50" height="50" relative="1" as="geometry">
            <mxPoint x="110.00000000000011" y="114.65999999999997" as="sourcePoint" />
            <mxPoint x="250.0000000000001" y="115" as="targetPoint" />
          </mxGeometry>
        </mxCell>
        <mxCell id="qp5J22JxWefJAlM9Jt5t-10" value="" style="endArrow=classic;html=1;rounded=0;fontSize=13;" edge="1" parent="1">
          <mxGeometry width="50" height="50" relative="1" as="geometry">
            <mxPoint x="370" y="114.66" as="sourcePoint" />
            <mxPoint x="430" y="115" as="targetPoint" />
          </mxGeometry>
        </mxCell>
        <mxCell id="qp5J22JxWefJAlM9Jt5t-11" value="" style="endArrow=classic;html=1;rounded=0;fontSize=13;" edge="1" parent="1">
          <mxGeometry width="50" height="50" relative="1" as="geometry">
            <mxPoint x="360" y="174.65999999999997" as="sourcePoint" />
            <mxPoint x="420" y="175" as="targetPoint" />
          </mxGeometry>
        </mxCell>
        <mxCell id="qp5J22JxWefJAlM9Jt5t-12" value="" style="endArrow=classic;html=1;rounded=0;fontSize=13;" edge="1" parent="1">
          <mxGeometry width="50" height="50" relative="1" as="geometry">
            <mxPoint x="352" y="234.65999999999997" as="sourcePoint" />
            <mxPoint x="412" y="235" as="targetPoint" />
          </mxGeometry>
        </mxCell>
        <mxCell id="qp5J22JxWefJAlM9Jt5t-13" value="" style="endArrow=classic;html=1;rounded=0;fontSize=13;" edge="1" parent="1">
          <mxGeometry width="50" height="50" relative="1" as="geometry">
            <mxPoint x="340" y="294.65999999999997" as="sourcePoint" />
            <mxPoint x="400" y="295" as="targetPoint" />
          </mxGeometry>
        </mxCell>
        <mxCell id="qp5J22JxWefJAlM9Jt5t-16" value="" style="endArrow=classic;html=1;rounded=0;fontSize=13;" edge="1" parent="1">
          <mxGeometry width="50" height="50" relative="1" as="geometry">
            <mxPoint x="320.65999999999997" y="360" as="sourcePoint" />
            <mxPoint x="320.65999999999997" y="310" as="targetPoint" />
          </mxGeometry>
        </mxCell>
        <mxCell id="qp5J22JxWefJAlM9Jt5t-17" value="" style="endArrow=none;html=1;rounded=0;fontSize=13;" edge="1" parent="1">
          <mxGeometry width="50" height="50" relative="1" as="geometry">
            <mxPoint x="290" y="359.65999999999997" as="sourcePoint" />
            <mxPoint x="320" y="359.65999999999997" as="targetPoint" />
          </mxGeometry>
        </mxCell>
        <mxCell id="qp5J22JxWefJAlM9Jt5t-19" value="" style="edgeStyle=elbowEdgeStyle;elbow=vertical;endArrow=classic;html=1;rounded=0;fontSize=13;entryX=0.5;entryY=1;entryDx=0;entryDy=0;" edge="1" parent="1" target="kdek4eqxlBiCtEGH6TSQ-13">
          <mxGeometry width="50" height="50" relative="1" as="geometry">
            <mxPoint x="450" y="280" as="sourcePoint" />
            <mxPoint x="420" y="240" as="targetPoint" />
          </mxGeometry>
        </mxCell>
        <mxCell id="qp5J22JxWefJAlM9Jt5t-20" value="" style="edgeStyle=elbowEdgeStyle;elbow=vertical;endArrow=classic;html=1;rounded=0;fontSize=13;entryX=0.5;entryY=1;entryDx=0;entryDy=0;" edge="1" parent="1">
          <mxGeometry width="50" height="50" relative="1" as="geometry">
            <mxPoint x="458" y="220" as="sourcePoint" />
            <mxPoint x="330" y="190" as="targetPoint" />
          </mxGeometry>
        </mxCell>
        <mxCell id="qp5J22JxWefJAlM9Jt5t-21" value="" style="edgeStyle=elbowEdgeStyle;elbow=vertical;endArrow=classic;html=1;rounded=0;fontSize=13;entryX=0.5;entryY=1;entryDx=0;entryDy=0;" edge="1" parent="1">
          <mxGeometry width="50" height="50" relative="1" as="geometry">
            <mxPoint x="468" y="160" as="sourcePoint" />
            <mxPoint x="340" y="130" as="targetPoint" />
          </mxGeometry>
        </mxCell>
        <mxCell id="qp5J22JxWefJAlM9Jt5t-22" value="" style="endArrow=classic;html=1;rounded=0;fontSize=13;" edge="1" parent="1">
          <mxGeometry width="50" height="50" relative="1" as="geometry">
            <mxPoint x="244.66" y="375" as="sourcePoint" />
            <mxPoint x="244.66" y="405" as="targetPoint" />
          </mxGeometry>
        </mxCell>
        <mxCell id="qp5J22JxWefJAlM9Jt5t-23" value="GAP" style="rounded=1;whiteSpace=wrap;html=1;fontSize=13;fillColor=none;" vertex="1" parent="1">
          <mxGeometry x="225" y="404" width="40" height="20" as="geometry" />
        </mxCell>
        <mxCell id="qp5J22JxWefJAlM9Jt5t-24" value="" style="endArrow=classic;html=1;rounded=0;fontSize=13;" edge="1" parent="1">
          <mxGeometry width="50" height="50" relative="1" as="geometry">
            <mxPoint x="444.65999999999997" y="309.9999999999999" as="sourcePoint" />
            <mxPoint x="444.65999999999997" y="339.9999999999999" as="targetPoint" />
          </mxGeometry>
        </mxCell>
        <mxCell id="qp5J22JxWefJAlM9Jt5t-25" value="GAP" style="rounded=1;whiteSpace=wrap;html=1;fontSize=13;fillColor=none;" vertex="1" parent="1">
          <mxGeometry x="425" y="339" width="40" height="20" as="geometry" />
        </mxCell>
        <mxCell id="qp5J22JxWefJAlM9Jt5t-26" value="" style="endArrow=classic;html=1;rounded=0;fontSize=13;" edge="1" parent="1">
          <mxGeometry width="50" height="50" relative="1" as="geometry">
            <mxPoint x="529.66" y="234.9999999999999" as="sourcePoint" />
            <mxPoint x="529.66" y="264.9999999999999" as="targetPoint" />
          </mxGeometry>
        </mxCell>
        <mxCell id="qp5J22JxWefJAlM9Jt5t-27" value="GAP" style="rounded=1;whiteSpace=wrap;html=1;fontSize=13;fillColor=none;" vertex="1" parent="1">
          <mxGeometry x="510" y="264" width="40" height="20" as="geometry" />
        </mxCell>
        <mxCell id="qp5J22JxWefJAlM9Jt5t-28" value="" style="endArrow=none;html=1;rounded=0;fontSize=13;" edge="1" parent="1">
          <mxGeometry width="50" height="50" relative="1" as="geometry">
            <mxPoint x="500" y="234.66" as="sourcePoint" />
            <mxPoint x="530" y="234.66" as="targetPoint" />
          </mxGeometry>
        </mxCell>
        <mxCell id="qp5J22JxWefJAlM9Jt5t-29" value="" style="endArrow=classic;html=1;rounded=0;fontSize=13;" edge="1" parent="1">
          <mxGeometry width="50" height="50" relative="1" as="geometry">
            <mxPoint x="244.66" y="424" as="sourcePoint" />
            <mxPoint x="245" y="440" as="targetPoint" />
          </mxGeometry>
        </mxCell>
        <mxCell id="qp5J22JxWefJAlM9Jt5t-34" value="" style="edgeStyle=elbowEdgeStyle;elbow=horizontal;endArrow=classic;html=1;rounded=0;fontSize=13;exitX=0.5;exitY=1;exitDx=0;exitDy=0;entryX=1;entryY=0.5;entryDx=0;entryDy=0;" edge="1" parent="1" source="qp5J22JxWefJAlM9Jt5t-25" target="qp5J22JxWefJAlM9Jt5t-36">
          <mxGeometry width="50" height="50" relative="1" as="geometry">
            <mxPoint x="450" y="470" as="sourcePoint" />
            <mxPoint x="260" y="450" as="targetPoint" />
            <Array as="points">
              <mxPoint x="445" y="380" />
              <mxPoint x="450" y="480" />
            </Array>
          </mxGeometry>
        </mxCell>
        <mxCell id="qp5J22JxWefJAlM9Jt5t-35" value="" style="edgeStyle=elbowEdgeStyle;elbow=horizontal;endArrow=classic;html=1;rounded=0;fontSize=13;entryX=1;entryY=0.5;entryDx=0;entryDy=0;exitX=0.5;exitY=1;exitDx=0;exitDy=0;" edge="1" parent="1" target="qp5J22JxWefJAlM9Jt5t-36">
          <mxGeometry width="50" height="50" relative="1" as="geometry">
            <mxPoint x="530" y="284" as="sourcePoint" />
            <mxPoint x="360.0000000000001" y="414.9999999999999" as="targetPoint" />
            <Array as="points">
              <mxPoint x="530" y="305" />
              <mxPoint x="535" y="405" />
            </Array>
          </mxGeometry>
        </mxCell>
        <mxCell id="qp5J22JxWefJAlM9Jt5t-36" value="concate" style="rounded=1;whiteSpace=wrap;html=1;fillColor=none;" vertex="1" parent="1">
          <mxGeometry x="215" y="440" width="60" height="30" as="geometry" />
        </mxCell>
        <mxCell id="qp5J22JxWefJAlM9Jt5t-37" value="" style="endArrow=classic;html=1;rounded=0;fontSize=13;" edge="1" parent="1">
          <mxGeometry width="50" height="50" relative="1" as="geometry">
            <mxPoint x="244.66" y="470" as="sourcePoint" />
            <mxPoint x="245" y="490" as="targetPoint" />
          </mxGeometry>
        </mxCell>
        <mxCell id="qp5J22JxWefJAlM9Jt5t-38" value="" style="endArrow=classic;html=1;rounded=0;fontSize=13;" edge="1" parent="1">
          <mxGeometry width="50" height="50" relative="1" as="geometry">
            <mxPoint x="65" y="70" as="sourcePoint" />
            <mxPoint x="64.66" y="100" as="targetPoint" />
          </mxGeometry>
        </mxCell>
        <mxCell id="qp5J22JxWefJAlM9Jt5t-39" value="" style="endArrow=classic;html=1;rounded=0;fontSize=13;" edge="1" parent="1">
          <mxGeometry width="50" height="50" relative="1" as="geometry">
            <mxPoint x="474.66" y="100" as="sourcePoint" />
            <mxPoint x="474.66" y="70" as="targetPoint" />
          </mxGeometry>
        </mxCell>
      </root>
    </mxGraphModel>
  </diagram>
  <diagram id="ZDzTxl-nsZJlDT5NDw51" name="第 8 页">
    <mxGraphModel dx="1221" dy="644" grid="0" gridSize="10" guides="1" tooltips="1" connect="1" arrows="1" fold="1" page="1" pageScale="1" pageWidth="583" pageHeight="827" math="0" shadow="0">
      <root>
        <mxCell id="0" />
        <mxCell id="1" parent="0" />
        <mxCell id="4-SlFtdnCle7uxn8Ksm0-1" value="" style="endArrow=classic;html=1;rounded=0;" edge="1" parent="1">
          <mxGeometry width="50" height="50" relative="1" as="geometry">
            <mxPoint x="291" y="30" as="sourcePoint" />
            <mxPoint x="291" y="70" as="targetPoint" />
          </mxGeometry>
        </mxCell>
        <mxCell id="4-SlFtdnCle7uxn8Ksm0-3" value="" style="endArrow=none;html=1;rounded=0;" edge="1" parent="1">
          <mxGeometry width="50" height="50" relative="1" as="geometry">
            <mxPoint x="200" y="70" as="sourcePoint" />
            <mxPoint x="380" y="70" as="targetPoint" />
          </mxGeometry>
        </mxCell>
        <mxCell id="4-SlFtdnCle7uxn8Ksm0-4" value="" style="endArrow=classic;html=1;rounded=0;" edge="1" parent="1">
          <mxGeometry width="50" height="50" relative="1" as="geometry">
            <mxPoint x="200" y="70" as="sourcePoint" />
            <mxPoint x="200" y="100" as="targetPoint" />
          </mxGeometry>
        </mxCell>
        <mxCell id="4-SlFtdnCle7uxn8Ksm0-5" value="" style="endArrow=classic;html=1;rounded=0;" edge="1" parent="1">
          <mxGeometry width="50" height="50" relative="1" as="geometry">
            <mxPoint x="379.71" y="70" as="sourcePoint" />
            <mxPoint x="379.71" y="100" as="targetPoint" />
          </mxGeometry>
        </mxCell>
        <mxCell id="4-SlFtdnCle7uxn8Ksm0-6" value="&lt;font style=&quot;font-size: 13px;&quot;&gt;conv&lt;br&gt;3x3&lt;/font&gt;" style="rounded=1;whiteSpace=wrap;html=1;fillColor=none;" vertex="1" parent="1">
          <mxGeometry x="170" y="100" width="60" height="30" as="geometry" />
        </mxCell>
        <mxCell id="4-SlFtdnCle7uxn8Ksm0-7" value="&lt;font style=&quot;font-size: 13px;&quot;&gt;conv&lt;br&gt;5x5&lt;/font&gt;" style="rounded=1;whiteSpace=wrap;html=1;fillColor=none;" vertex="1" parent="1">
          <mxGeometry x="350" y="100" width="60" height="30" as="geometry" />
        </mxCell>
        <mxCell id="4-SlFtdnCle7uxn8Ksm0-8" value="" style="endArrow=none;html=1;rounded=0;fontSize=13;exitX=0.5;exitY=0;exitDx=0;exitDy=0;" edge="1" parent="1" source="4-SlFtdnCle7uxn8Ksm0-60">
          <mxGeometry width="50" height="50" relative="1" as="geometry">
            <mxPoint x="200" y="460" as="sourcePoint" />
            <mxPoint x="199.71" y="130" as="targetPoint" />
          </mxGeometry>
        </mxCell>
        <mxCell id="4-SlFtdnCle7uxn8Ksm0-9" value="" style="endArrow=classic;html=1;rounded=0;fontSize=13;" edge="1" parent="1">
          <mxGeometry width="50" height="50" relative="1" as="geometry">
            <mxPoint x="200" y="160" as="sourcePoint" />
            <mxPoint x="240" y="160" as="targetPoint" />
          </mxGeometry>
        </mxCell>
        <mxCell id="4-SlFtdnCle7uxn8Ksm0-10" value="" style="shape=orEllipse;perimeter=ellipsePerimeter;whiteSpace=wrap;html=1;backgroundOutline=1;fontSize=13;fillColor=none;" vertex="1" parent="1">
          <mxGeometry x="240" y="150" width="20" height="20" as="geometry" />
        </mxCell>
        <mxCell id="4-SlFtdnCle7uxn8Ksm0-12" value="" style="endArrow=none;html=1;rounded=0;fontSize=13;exitX=0.5;exitY=0;exitDx=0;exitDy=0;" edge="1" parent="1" source="4-SlFtdnCle7uxn8Ksm0-63">
          <mxGeometry width="50" height="50" relative="1" as="geometry">
            <mxPoint x="380" y="460" as="sourcePoint" />
            <mxPoint x="380" y="130" as="targetPoint" />
          </mxGeometry>
        </mxCell>
        <mxCell id="4-SlFtdnCle7uxn8Ksm0-13" value="" style="endArrow=classic;html=1;rounded=0;fontSize=13;entryX=1;entryY=0.5;entryDx=0;entryDy=0;" edge="1" parent="1" target="4-SlFtdnCle7uxn8Ksm0-10">
          <mxGeometry width="50" height="50" relative="1" as="geometry">
            <mxPoint x="380" y="160" as="sourcePoint" />
            <mxPoint x="280" y="159.71" as="targetPoint" />
          </mxGeometry>
        </mxCell>
        <mxCell id="4-SlFtdnCle7uxn8Ksm0-14" value="" style="endArrow=classic;html=1;rounded=0;" edge="1" parent="1">
          <mxGeometry width="50" height="50" relative="1" as="geometry">
            <mxPoint x="249.71" y="170" as="sourcePoint" />
            <mxPoint x="249.71" y="200" as="targetPoint" />
          </mxGeometry>
        </mxCell>
        <mxCell id="4-SlFtdnCle7uxn8Ksm0-15" value="GAP" style="rounded=1;whiteSpace=wrap;html=1;fontSize=13;fillColor=none;" vertex="1" parent="1">
          <mxGeometry x="230" y="200" width="40" height="20" as="geometry" />
        </mxCell>
        <mxCell id="4-SlFtdnCle7uxn8Ksm0-16" value="" style="endArrow=classic;html=1;rounded=0;fontSize=13;" edge="1" parent="1">
          <mxGeometry width="50" height="50" relative="1" as="geometry">
            <mxPoint x="249.71" y="220" as="sourcePoint" />
            <mxPoint x="249.71" y="240" as="targetPoint" />
          </mxGeometry>
        </mxCell>
        <mxCell id="4-SlFtdnCle7uxn8Ksm0-17" value="conv" style="rounded=1;whiteSpace=wrap;html=1;fontSize=13;fillColor=none;" vertex="1" parent="1">
          <mxGeometry x="230" y="240" width="40" height="20" as="geometry" />
        </mxCell>
        <mxCell id="4-SlFtdnCle7uxn8Ksm0-18" value="" style="endArrow=classic;html=1;rounded=0;fontSize=13;" edge="1" parent="1">
          <mxGeometry width="50" height="50" relative="1" as="geometry">
            <mxPoint x="249.71000000000004" y="260" as="sourcePoint" />
            <mxPoint x="249.71000000000004" y="280" as="targetPoint" />
          </mxGeometry>
        </mxCell>
        <mxCell id="4-SlFtdnCle7uxn8Ksm0-19" value="BN" style="rounded=1;whiteSpace=wrap;html=1;fontSize=13;fillColor=none;" vertex="1" parent="1">
          <mxGeometry x="230" y="280" width="40" height="20" as="geometry" />
        </mxCell>
        <mxCell id="4-SlFtdnCle7uxn8Ksm0-20" value="" style="endArrow=classic;html=1;rounded=0;fontSize=13;" edge="1" parent="1">
          <mxGeometry width="50" height="50" relative="1" as="geometry">
            <mxPoint x="249.71000000000004" y="300" as="sourcePoint" />
            <mxPoint x="249.71000000000004" y="320" as="targetPoint" />
          </mxGeometry>
        </mxCell>
        <mxCell id="4-SlFtdnCle7uxn8Ksm0-21" value="ReLu" style="rounded=1;whiteSpace=wrap;html=1;fontSize=13;fillColor=none;" vertex="1" parent="1">
          <mxGeometry x="230" y="320" width="40" height="20" as="geometry" />
        </mxCell>
        <mxCell id="4-SlFtdnCle7uxn8Ksm0-22" value="" style="endArrow=classic;html=1;rounded=0;fontSize=13;" edge="1" parent="1">
          <mxGeometry width="50" height="50" relative="1" as="geometry">
            <mxPoint x="249.71000000000004" y="340" as="sourcePoint" />
            <mxPoint x="249.71000000000004" y="360" as="targetPoint" />
          </mxGeometry>
        </mxCell>
        <mxCell id="4-SlFtdnCle7uxn8Ksm0-23" value="conv" style="rounded=1;whiteSpace=wrap;html=1;fontSize=13;fillColor=none;" vertex="1" parent="1">
          <mxGeometry x="230" y="360" width="40" height="20" as="geometry" />
        </mxCell>
        <mxCell id="4-SlFtdnCle7uxn8Ksm0-24" value="" style="endArrow=classic;html=1;rounded=0;fontSize=13;" edge="1" parent="1">
          <mxGeometry width="50" height="50" relative="1" as="geometry">
            <mxPoint x="249.71000000000004" y="380" as="sourcePoint" />
            <mxPoint x="249.71000000000004" y="400" as="targetPoint" />
          </mxGeometry>
        </mxCell>
        <mxCell id="4-SlFtdnCle7uxn8Ksm0-26" value="BN" style="rounded=1;whiteSpace=wrap;html=1;fontSize=13;fillColor=none;" vertex="1" parent="1">
          <mxGeometry x="230" y="400" width="40" height="20" as="geometry" />
        </mxCell>
        <mxCell id="4-SlFtdnCle7uxn8Ksm0-28" value="" style="endArrow=none;html=1;rounded=0;fontSize=13;" edge="1" parent="1">
          <mxGeometry width="50" height="50" relative="1" as="geometry">
            <mxPoint x="250" y="180" as="sourcePoint" />
            <mxPoint x="350" y="180" as="targetPoint" />
          </mxGeometry>
        </mxCell>
        <mxCell id="4-SlFtdnCle7uxn8Ksm0-30" value="" style="endArrow=classic;html=1;rounded=0;fontSize=13;entryX=0.5;entryY=0;entryDx=0;entryDy=0;" edge="1" parent="1" target="4-SlFtdnCle7uxn8Ksm0-32">
          <mxGeometry width="50" height="50" relative="1" as="geometry">
            <mxPoint x="299.71" y="180" as="sourcePoint" />
            <mxPoint x="299.71" y="200" as="targetPoint" />
          </mxGeometry>
        </mxCell>
        <mxCell id="4-SlFtdnCle7uxn8Ksm0-31" value="" style="endArrow=classic;html=1;rounded=0;fontSize=13;entryX=0.5;entryY=0;entryDx=0;entryDy=0;" edge="1" parent="1" target="4-SlFtdnCle7uxn8Ksm0-41">
          <mxGeometry width="50" height="50" relative="1" as="geometry">
            <mxPoint x="349.71" y="180" as="sourcePoint" />
            <mxPoint x="349.71" y="200" as="targetPoint" />
          </mxGeometry>
        </mxCell>
        <mxCell id="4-SlFtdnCle7uxn8Ksm0-32" value="conv3" style="rounded=1;whiteSpace=wrap;html=1;fontSize=13;fillColor=none;" vertex="1" parent="1">
          <mxGeometry x="280" y="220" width="40" height="20" as="geometry" />
        </mxCell>
        <mxCell id="4-SlFtdnCle7uxn8Ksm0-33" value="" style="endArrow=classic;html=1;rounded=0;fontSize=13;" edge="1" parent="1">
          <mxGeometry width="50" height="50" relative="1" as="geometry">
            <mxPoint x="299.71000000000004" y="240" as="sourcePoint" />
            <mxPoint x="299.71000000000004" y="260" as="targetPoint" />
          </mxGeometry>
        </mxCell>
        <mxCell id="4-SlFtdnCle7uxn8Ksm0-34" value="BN" style="rounded=1;whiteSpace=wrap;html=1;fontSize=13;fillColor=none;" vertex="1" parent="1">
          <mxGeometry x="280" y="260" width="40" height="20" as="geometry" />
        </mxCell>
        <mxCell id="4-SlFtdnCle7uxn8Ksm0-35" value="" style="endArrow=classic;html=1;rounded=0;fontSize=13;" edge="1" parent="1">
          <mxGeometry width="50" height="50" relative="1" as="geometry">
            <mxPoint x="299.71000000000004" y="280" as="sourcePoint" />
            <mxPoint x="299.71000000000004" y="300" as="targetPoint" />
          </mxGeometry>
        </mxCell>
        <mxCell id="4-SlFtdnCle7uxn8Ksm0-36" value="ReLu" style="rounded=1;whiteSpace=wrap;html=1;fontSize=13;fillColor=none;" vertex="1" parent="1">
          <mxGeometry x="280" y="300" width="40" height="20" as="geometry" />
        </mxCell>
        <mxCell id="4-SlFtdnCle7uxn8Ksm0-37" value="" style="endArrow=classic;html=1;rounded=0;fontSize=13;" edge="1" parent="1">
          <mxGeometry width="50" height="50" relative="1" as="geometry">
            <mxPoint x="299.71000000000004" y="320" as="sourcePoint" />
            <mxPoint x="299.71000000000004" y="340" as="targetPoint" />
          </mxGeometry>
        </mxCell>
        <mxCell id="4-SlFtdnCle7uxn8Ksm0-38" value="conv3" style="rounded=1;whiteSpace=wrap;html=1;fontSize=13;fillColor=none;" vertex="1" parent="1">
          <mxGeometry x="280" y="340" width="40" height="20" as="geometry" />
        </mxCell>
        <mxCell id="4-SlFtdnCle7uxn8Ksm0-39" value="" style="endArrow=classic;html=1;rounded=0;fontSize=13;" edge="1" parent="1">
          <mxGeometry width="50" height="50" relative="1" as="geometry">
            <mxPoint x="299.71000000000004" y="360" as="sourcePoint" />
            <mxPoint x="299.71000000000004" y="380" as="targetPoint" />
          </mxGeometry>
        </mxCell>
        <mxCell id="4-SlFtdnCle7uxn8Ksm0-40" value="BN" style="rounded=1;whiteSpace=wrap;html=1;fontSize=13;fillColor=none;" vertex="1" parent="1">
          <mxGeometry x="280" y="380" width="40" height="20" as="geometry" />
        </mxCell>
        <mxCell id="4-SlFtdnCle7uxn8Ksm0-41" value="conv5" style="rounded=1;whiteSpace=wrap;html=1;fontSize=13;fillColor=none;" vertex="1" parent="1">
          <mxGeometry x="330" y="220" width="40" height="20" as="geometry" />
        </mxCell>
        <mxCell id="4-SlFtdnCle7uxn8Ksm0-42" value="" style="endArrow=classic;html=1;rounded=0;fontSize=13;" edge="1" parent="1">
          <mxGeometry width="50" height="50" relative="1" as="geometry">
            <mxPoint x="349.71000000000004" y="240" as="sourcePoint" />
            <mxPoint x="349.71000000000004" y="260" as="targetPoint" />
          </mxGeometry>
        </mxCell>
        <mxCell id="4-SlFtdnCle7uxn8Ksm0-43" value="BN" style="rounded=1;whiteSpace=wrap;html=1;fontSize=13;fillColor=none;" vertex="1" parent="1">
          <mxGeometry x="330" y="260" width="40" height="20" as="geometry" />
        </mxCell>
        <mxCell id="4-SlFtdnCle7uxn8Ksm0-44" value="" style="endArrow=classic;html=1;rounded=0;fontSize=13;" edge="1" parent="1">
          <mxGeometry width="50" height="50" relative="1" as="geometry">
            <mxPoint x="349.71000000000004" y="280" as="sourcePoint" />
            <mxPoint x="349.71000000000004" y="300" as="targetPoint" />
          </mxGeometry>
        </mxCell>
        <mxCell id="4-SlFtdnCle7uxn8Ksm0-45" value="ReLu" style="rounded=1;whiteSpace=wrap;html=1;fontSize=13;fillColor=none;" vertex="1" parent="1">
          <mxGeometry x="330" y="300" width="40" height="20" as="geometry" />
        </mxCell>
        <mxCell id="4-SlFtdnCle7uxn8Ksm0-46" value="" style="endArrow=classic;html=1;rounded=0;fontSize=13;" edge="1" parent="1">
          <mxGeometry width="50" height="50" relative="1" as="geometry">
            <mxPoint x="349.71000000000004" y="320" as="sourcePoint" />
            <mxPoint x="349.71000000000004" y="340" as="targetPoint" />
          </mxGeometry>
        </mxCell>
        <mxCell id="4-SlFtdnCle7uxn8Ksm0-47" value="conv5" style="rounded=1;whiteSpace=wrap;html=1;fontSize=13;fillColor=none;" vertex="1" parent="1">
          <mxGeometry x="330" y="340" width="40" height="20" as="geometry" />
        </mxCell>
        <mxCell id="4-SlFtdnCle7uxn8Ksm0-48" value="" style="endArrow=classic;html=1;rounded=0;fontSize=13;" edge="1" parent="1">
          <mxGeometry width="50" height="50" relative="1" as="geometry">
            <mxPoint x="349.71000000000004" y="360" as="sourcePoint" />
            <mxPoint x="349.71000000000004" y="380" as="targetPoint" />
          </mxGeometry>
        </mxCell>
        <mxCell id="4-SlFtdnCle7uxn8Ksm0-49" value="BN" style="rounded=1;whiteSpace=wrap;html=1;fontSize=13;fillColor=none;" vertex="1" parent="1">
          <mxGeometry x="330" y="380" width="40" height="20" as="geometry" />
        </mxCell>
        <mxCell id="4-SlFtdnCle7uxn8Ksm0-51" value="" style="endArrow=none;html=1;rounded=0;fontSize=13;" edge="1" parent="1">
          <mxGeometry width="50" height="50" relative="1" as="geometry">
            <mxPoint x="250" y="440" as="sourcePoint" />
            <mxPoint x="249.70999999999998" y="420" as="targetPoint" />
          </mxGeometry>
        </mxCell>
        <mxCell id="4-SlFtdnCle7uxn8Ksm0-52" value="" style="endArrow=classic;html=1;rounded=0;fontSize=13;" edge="1" parent="1">
          <mxGeometry width="50" height="50" relative="1" as="geometry">
            <mxPoint x="250" y="440" as="sourcePoint" />
            <mxPoint x="290" y="440" as="targetPoint" />
          </mxGeometry>
        </mxCell>
        <mxCell id="4-SlFtdnCle7uxn8Ksm0-53" value="" style="shape=orEllipse;perimeter=ellipsePerimeter;whiteSpace=wrap;html=1;backgroundOutline=1;fontSize=13;fillColor=none;" vertex="1" parent="1">
          <mxGeometry x="290" y="430" width="20" height="20" as="geometry" />
        </mxCell>
        <mxCell id="4-SlFtdnCle7uxn8Ksm0-54" value="" style="endArrow=classic;html=1;rounded=0;fontSize=13;entryX=0.5;entryY=0;entryDx=0;entryDy=0;" edge="1" parent="1" target="4-SlFtdnCle7uxn8Ksm0-53">
          <mxGeometry width="50" height="50" relative="1" as="geometry">
            <mxPoint x="299.71000000000004" y="400" as="sourcePoint" />
            <mxPoint x="299.71000000000004" y="420" as="targetPoint" />
          </mxGeometry>
        </mxCell>
        <mxCell id="4-SlFtdnCle7uxn8Ksm0-55" value="" style="endArrow=none;html=1;rounded=0;fontSize=13;" edge="1" parent="1">
          <mxGeometry width="50" height="50" relative="1" as="geometry">
            <mxPoint x="350" y="440" as="sourcePoint" />
            <mxPoint x="350" y="400" as="targetPoint" />
          </mxGeometry>
        </mxCell>
        <mxCell id="4-SlFtdnCle7uxn8Ksm0-56" value="" style="endArrow=classic;html=1;rounded=0;fontSize=13;entryX=1;entryY=0.5;entryDx=0;entryDy=0;" edge="1" parent="1" target="4-SlFtdnCle7uxn8Ksm0-53">
          <mxGeometry width="50" height="50" relative="1" as="geometry">
            <mxPoint x="350" y="439.71" as="sourcePoint" />
            <mxPoint x="320" y="439.71" as="targetPoint" />
          </mxGeometry>
        </mxCell>
        <mxCell id="4-SlFtdnCle7uxn8Ksm0-57" value="" style="endArrow=classic;html=1;rounded=0;fontSize=13;" edge="1" parent="1">
          <mxGeometry width="50" height="50" relative="1" as="geometry">
            <mxPoint x="299.71" y="450" as="sourcePoint" />
            <mxPoint x="300" y="470" as="targetPoint" />
          </mxGeometry>
        </mxCell>
        <mxCell id="4-SlFtdnCle7uxn8Ksm0-58" value="S" style="ellipse;whiteSpace=wrap;html=1;aspect=fixed;fontSize=13;fillColor=none;" vertex="1" parent="1">
          <mxGeometry x="290" y="470" width="20" height="20" as="geometry" />
        </mxCell>
        <mxCell id="4-SlFtdnCle7uxn8Ksm0-59" value="" style="endArrow=classic;html=1;rounded=0;fontSize=13;entryX=1;entryY=0.5;entryDx=0;entryDy=0;" edge="1" parent="1" target="4-SlFtdnCle7uxn8Ksm0-60">
          <mxGeometry width="50" height="50" relative="1" as="geometry">
            <mxPoint x="290" y="479.71" as="sourcePoint" />
            <mxPoint x="220" y="480" as="targetPoint" />
          </mxGeometry>
        </mxCell>
        <mxCell id="4-SlFtdnCle7uxn8Ksm0-60" value="" style="shape=sumEllipse;perimeter=ellipsePerimeter;whiteSpace=wrap;html=1;backgroundOutline=1;fontSize=13;fillColor=none;" vertex="1" parent="1">
          <mxGeometry x="190" y="470" width="20" height="20" as="geometry" />
        </mxCell>
        <mxCell id="4-SlFtdnCle7uxn8Ksm0-63" value="" style="shape=sumEllipse;perimeter=ellipsePerimeter;whiteSpace=wrap;html=1;backgroundOutline=1;fontSize=13;fillColor=none;" vertex="1" parent="1">
          <mxGeometry x="370" y="470" width="20" height="20" as="geometry" />
        </mxCell>
        <mxCell id="4-SlFtdnCle7uxn8Ksm0-64" value="" style="endArrow=classic;html=1;rounded=0;fontSize=13;entryX=0;entryY=0.5;entryDx=0;entryDy=0;" edge="1" parent="1" target="4-SlFtdnCle7uxn8Ksm0-63">
          <mxGeometry width="50" height="50" relative="1" as="geometry">
            <mxPoint x="310" y="479.71" as="sourcePoint" />
            <mxPoint x="358" y="479.71" as="targetPoint" />
          </mxGeometry>
        </mxCell>
        <mxCell id="4-SlFtdnCle7uxn8Ksm0-66" value="" style="endArrow=classic;html=1;rounded=0;fontSize=13;entryX=0;entryY=0.5;entryDx=0;entryDy=0;" edge="1" parent="1" target="4-SlFtdnCle7uxn8Ksm0-68">
          <mxGeometry width="50" height="50" relative="1" as="geometry">
            <mxPoint x="200" y="530" as="sourcePoint" />
            <mxPoint x="250" y="530" as="targetPoint" />
          </mxGeometry>
        </mxCell>
        <mxCell id="4-SlFtdnCle7uxn8Ksm0-67" value="" style="endArrow=none;html=1;rounded=0;fontSize=13;" edge="1" parent="1">
          <mxGeometry width="50" height="50" relative="1" as="geometry">
            <mxPoint x="199.71" y="530" as="sourcePoint" />
            <mxPoint x="199.71" y="490" as="targetPoint" />
          </mxGeometry>
        </mxCell>
        <mxCell id="4-SlFtdnCle7uxn8Ksm0-68" value="" style="shape=orEllipse;perimeter=ellipsePerimeter;whiteSpace=wrap;html=1;backgroundOutline=1;fontSize=13;fillColor=none;" vertex="1" parent="1">
          <mxGeometry x="290" y="520" width="20" height="20" as="geometry" />
        </mxCell>
        <mxCell id="4-SlFtdnCle7uxn8Ksm0-69" value="" style="endArrow=classic;html=1;rounded=0;fontSize=13;" edge="1" parent="1">
          <mxGeometry width="50" height="50" relative="1" as="geometry">
            <mxPoint x="380" y="530" as="sourcePoint" />
            <mxPoint x="310" y="529.71" as="targetPoint" />
          </mxGeometry>
        </mxCell>
        <mxCell id="4-SlFtdnCle7uxn8Ksm0-70" value="" style="endArrow=none;html=1;rounded=0;fontSize=13;" edge="1" parent="1">
          <mxGeometry width="50" height="50" relative="1" as="geometry">
            <mxPoint x="379.71000000000004" y="530" as="sourcePoint" />
            <mxPoint x="379.71000000000004" y="490" as="targetPoint" />
          </mxGeometry>
        </mxCell>
        <mxCell id="4-SlFtdnCle7uxn8Ksm0-71" value="" style="endArrow=classic;html=1;rounded=0;fontSize=13;" edge="1" parent="1">
          <mxGeometry width="50" height="50" relative="1" as="geometry">
            <mxPoint x="299.71000000000004" y="540" as="sourcePoint" />
            <mxPoint x="299.71000000000004" y="560" as="targetPoint" />
          </mxGeometry>
        </mxCell>
      </root>
    </mxGraphModel>
  </diagram>
  <diagram id="6-2sAeq90CtyurvwI8uE" name="第 9 页">
    <mxGraphModel dx="1038" dy="547" grid="0" gridSize="10" guides="1" tooltips="1" connect="1" arrows="1" fold="1" page="1" pageScale="1" pageWidth="583" pageHeight="827" math="0" shadow="0">
      <root>
        <mxCell id="0" />
        <mxCell id="1" parent="0" />
        <mxCell id="toTV8-VwbGYtQG204KgI-1" value="分类" style="rounded=0;whiteSpace=wrap;html=1;fontSize=13;fillColor=#f8cecc;strokeColor=#b85450;" vertex="1" parent="1">
          <mxGeometry x="30" y="140" width="120" height="60" as="geometry" />
        </mxCell>
        <mxCell id="toTV8-VwbGYtQG204KgI-3" value="" style="endArrow=none;html=1;rounded=0;fontSize=13;" edge="1" parent="1">
          <mxGeometry width="50" height="50" relative="1" as="geometry">
            <mxPoint x="150" y="169.5" as="sourcePoint" />
            <mxPoint x="200" y="169.5" as="targetPoint" />
          </mxGeometry>
        </mxCell>
        <mxCell id="toTV8-VwbGYtQG204KgI-4" value="" style="endArrow=none;html=1;rounded=0;fontSize=13;" edge="1" parent="1">
          <mxGeometry width="50" height="50" relative="1" as="geometry">
            <mxPoint x="200" y="205" as="sourcePoint" />
            <mxPoint x="200" y="135" as="targetPoint" />
          </mxGeometry>
        </mxCell>
        <mxCell id="toTV8-VwbGYtQG204KgI-5" value="" style="endArrow=classic;html=1;rounded=0;fontSize=13;" edge="1" parent="1">
          <mxGeometry width="50" height="50" relative="1" as="geometry">
            <mxPoint x="200" y="136" as="sourcePoint" />
            <mxPoint x="250" y="136" as="targetPoint" />
          </mxGeometry>
        </mxCell>
        <mxCell id="toTV8-VwbGYtQG204KgI-6" value="" style="endArrow=classic;html=1;rounded=0;fontSize=13;" edge="1" parent="1">
          <mxGeometry width="50" height="50" relative="1" as="geometry">
            <mxPoint x="200" y="206" as="sourcePoint" />
            <mxPoint x="250" y="206" as="targetPoint" />
          </mxGeometry>
        </mxCell>
        <mxCell id="toTV8-VwbGYtQG204KgI-7" value="正常" style="rounded=0;whiteSpace=wrap;html=1;fontSize=13;fillColor=#d5e8d4;strokeColor=#82b366;" vertex="1" parent="1">
          <mxGeometry x="250" y="120" width="80" height="40" as="geometry" />
        </mxCell>
        <mxCell id="toTV8-VwbGYtQG204KgI-8" value="肿瘤" style="rounded=0;whiteSpace=wrap;html=1;fontSize=13;fillColor=#f5f5f5;fontColor=#333333;strokeColor=#666666;" vertex="1" parent="1">
          <mxGeometry x="250" y="190" width="80" height="40" as="geometry" />
        </mxCell>
        <mxCell id="toTV8-VwbGYtQG204KgI-9" value="" style="endArrow=classic;html=1;rounded=0;fontSize=13;" edge="1" parent="1">
          <mxGeometry width="50" height="50" relative="1" as="geometry">
            <mxPoint x="330" y="209.5" as="sourcePoint" />
            <mxPoint x="380" y="209.5" as="targetPoint" />
          </mxGeometry>
        </mxCell>
        <mxCell id="toTV8-VwbGYtQG204KgI-10" value="分割" style="rounded=0;whiteSpace=wrap;html=1;fontSize=13;fillColor=#e1d5e7;strokeColor=#9673a6;" vertex="1" parent="1">
          <mxGeometry x="380" y="180" width="120" height="60" as="geometry" />
        </mxCell>
        <mxCell id="toTV8-VwbGYtQG204KgI-11" value="分割" style="rounded=0;whiteSpace=wrap;html=1;fontSize=13;fillColor=#e1d5e7;strokeColor=#9673a6;" vertex="1" parent="1">
          <mxGeometry x="30" y="310" width="120" height="60" as="geometry" />
        </mxCell>
        <mxCell id="toTV8-VwbGYtQG204KgI-12" value="" style="endArrow=classic;html=1;rounded=0;fontSize=13;" edge="1" parent="1">
          <mxGeometry width="50" height="50" relative="1" as="geometry">
            <mxPoint x="150" y="340" as="sourcePoint" />
            <mxPoint x="200" y="340" as="targetPoint" />
          </mxGeometry>
        </mxCell>
        <mxCell id="toTV8-VwbGYtQG204KgI-13" value="Mask" style="rounded=1;whiteSpace=wrap;html=1;fontSize=13;fillColor=#fff2cc;strokeColor=#d6b656;" vertex="1" parent="1">
          <mxGeometry x="200" y="310" width="120" height="60" as="geometry" />
        </mxCell>
        <mxCell id="toTV8-VwbGYtQG204KgI-14" value="图像" style="rounded=1;whiteSpace=wrap;html=1;fontSize=13;fillColor=#dae8fc;strokeColor=#6c8ebf;" vertex="1" parent="1">
          <mxGeometry x="200" y="400" width="120" height="60" as="geometry" />
        </mxCell>
        <mxCell id="toTV8-VwbGYtQG204KgI-15" value="" style="endArrow=none;html=1;rounded=0;fontSize=13;" edge="1" parent="1">
          <mxGeometry width="50" height="50" relative="1" as="geometry">
            <mxPoint x="320" y="340" as="sourcePoint" />
            <mxPoint x="360" y="340" as="targetPoint" />
          </mxGeometry>
        </mxCell>
        <mxCell id="toTV8-VwbGYtQG204KgI-16" value="" style="endArrow=none;html=1;rounded=0;fontSize=13;" edge="1" parent="1">
          <mxGeometry width="50" height="50" relative="1" as="geometry">
            <mxPoint x="320" y="429.5" as="sourcePoint" />
            <mxPoint x="360" y="429.5" as="targetPoint" />
          </mxGeometry>
        </mxCell>
        <mxCell id="toTV8-VwbGYtQG204KgI-18" value="" style="endArrow=classic;html=1;rounded=0;fontSize=13;" edge="1" parent="1">
          <mxGeometry width="50" height="50" relative="1" as="geometry">
            <mxPoint x="360" y="340" as="sourcePoint" />
            <mxPoint x="360" y="370" as="targetPoint" />
          </mxGeometry>
        </mxCell>
        <mxCell id="toTV8-VwbGYtQG204KgI-19" value="" style="endArrow=classic;html=1;rounded=0;fontSize=13;" edge="1" parent="1">
          <mxGeometry width="50" height="50" relative="1" as="geometry">
            <mxPoint x="360" y="430" as="sourcePoint" />
            <mxPoint x="360" y="400" as="targetPoint" />
          </mxGeometry>
        </mxCell>
        <mxCell id="toTV8-VwbGYtQG204KgI-20" value="&lt;span style=&quot;font-size: 12px;&quot;&gt;concate&lt;/span&gt;" style="rounded=0;whiteSpace=wrap;html=1;fontSize=13;" vertex="1" parent="1">
          <mxGeometry x="330" y="370" width="60" height="30" as="geometry" />
        </mxCell>
        <mxCell id="56lcjuW3VpegjSr1Q6iw-1" value="" style="endArrow=classic;html=1;rounded=0;fontSize=13;" edge="1" parent="1">
          <mxGeometry width="50" height="50" relative="1" as="geometry">
            <mxPoint x="390" y="384.5" as="sourcePoint" />
            <mxPoint x="450" y="384.5" as="targetPoint" />
          </mxGeometry>
        </mxCell>
        <mxCell id="56lcjuW3VpegjSr1Q6iw-2" value="分类" style="rounded=0;whiteSpace=wrap;html=1;fontSize=13;fillColor=#f8cecc;strokeColor=#b85450;" vertex="1" parent="1">
          <mxGeometry x="450" y="354" width="120" height="60" as="geometry" />
        </mxCell>
      </root>
    </mxGraphModel>
  </diagram>
</mxfile>
